<?xml version="1.0" encoding="UTF-8"?>
<svg xmlns="http://www.w3.org/2000/svg" class="qr-svg qrcode" viewBox="0 0 45 45" preserveAspectRatio="xMidYMid">
<path class="qr-2049 dark qrcode" fill="#000" fill-opacity="1" d="M12 33 h1 v1 h-1Z"/>
<path class="qr-2050 dark qrcode" fill="#000" fill-opacity="1" d="M14 4 h1 v1 h-1Z M16 4 h1 v1 h-1Z M17 4 h1 v1 h-1Z M18 4 h1 v1 h-1Z M19 4 h1 v1 h-1Z M21 4 h1 v1 h-1Z M23 4 h1 v1 h-1Z M25 4 h1 v1 h-1Z M27 4 h1 v1 h-1Z M30 4 h1 v1 h-1Z M31 4 h1 v1 h-1Z M32 4 h1 v1 h-1Z M13 5 h1 v1 h-1Z M14 5 h1 v1 h-1Z M15 5 h1 v1 h-1Z M16 5 h1 v1 h-1Z M17 5 h1 v1 h-1Z M20 5 h1 v1 h-1Z M21 5 h1 v1 h-1Z M22 5 h1 v1 h-1Z M26 5 h1 v1 h-1Z M27 5 h1 v1 h-1Z M30 5 h1 v1 h-1Z M32 5 h1 v1 h-1Z M13 6 h1 v1 h-1Z M14 6 h1 v1 h-1Z M20 6 h1 v1 h-1Z M22 6 h1 v1 h-1Z M23 6 h1 v1 h-1Z M24 6 h1 v1 h-1Z M28 6 h1 v1 h-1Z M29 6 h1 v1 h-1Z M30 6 h1 v1 h-1Z M31 6 h1 v1 h-1Z M13 7 h1 v1 h-1Z M14 7 h1 v1 h-1Z M16 7 h1 v1 h-1Z M18 7 h1 v1 h-1Z M19 7 h1 v1 h-1Z M21 7 h1 v1 h-1Z M22 7 h1 v1 h-1Z M26 7 h1 v1 h-1Z M27 7 h1 v1 h-1Z M28 7 h1 v1 h-1Z M29 7 h1 v1 h-1Z M30 7 h1 v1 h-1Z M15 8 h1 v1 h-1Z M16 8 h1 v1 h-1Z M18 8 h1 v1 h-1Z M20 8 h1 v1 h-1Z M21 8 h1 v1 h-1Z M22 8 h1 v1 h-1Z M23 8 h1 v1 h-1Z M25 8 h1 v1 h-1Z M27 8 h1 v1 h-1Z M28 8 h1 v1 h-1Z M31 8 h1 v1 h-1Z M14 9 h1 v1 h-1Z M15 9 h1 v1 h-1Z M17 9 h1 v1 h-1Z M19 9 h1 v1 h-1Z M20 9 h1 v1 h-1Z M23 9 h1 v1 h-1Z M24 9 h1 v1 h-1Z M26 9 h1 v1 h-1Z M32 9 h1 v1 h-1Z M14 11 h1 v1 h-1Z M16 11 h1 v1 h-1Z M19 11 h1 v1 h-1Z M20 11 h1 v1 h-1Z M21 11 h1 v1 h-1Z M22 11 h1 v1 h-1Z M24 11 h1 v1 h-1Z M26 11 h1 v1 h-1Z M30 11 h1 v1 h-1Z M32 11 h1 v1 h-1Z M14 12 h1 v1 h-1Z M15 12 h1 v1 h-1Z M16 12 h1 v1 h-1Z M17 12 h1 v1 h-1Z M19 12 h1 v1 h-1Z M21 12 h1 v1 h-1Z M25 12 h1 v1 h-1Z M28 12 h1 v1 h-1Z M30 12 h1 v1 h-1Z M31 12 h1 v1 h-1Z M32 12 h1 v1 h-1Z M6 13 h1 v1 h-1Z M7 13 h1 v1 h-1Z M9 13 h1 v1 h-1Z M11 13 h1 v1 h-1Z M13 13 h1 v1 h-1Z M14 13 h1 v1 h-1Z M16 13 h1 v1 h-1Z M17 13 h1 v1 h-1Z M18 13 h1 v1 h-1Z M19 13 h1 v1 h-1Z M23 13 h1 v1 h-1Z M24 13 h1 v1 h-1Z M25 13 h1 v1 h-1Z
M26 13 h1 v1 h-1Z M27 13 h1 v1 h-1Z M32 13 h1 v1 h-1Z M38 13 h1 v1 h-1Z M8 14 h1 v1 h-1Z M12 14 h1 v1 h-1Z M15 14 h1 v1 h-1Z M16 14 h1 v1 h-1Z M17 14 h1 v1 h-1Z M20 14 h1 v1 h-1Z M21 14 h1 v1 h-1Z M22 14 h1 v1 h-1Z M24 14 h1 v1 h-1Z M26 14 h1 v1 h-1Z M27 14 h1 v1 h-1Z M28 14 h1 v1 h-1Z M29 14 h1 v1 h-1Z M30 14 h1 v1 h-1Z M32 14 h1 v1 h-1Z M34 14 h1 v1 h-1Z M36 14 h1 v1 h-1Z M37 14 h1 v1 h-1Z M38 14 h1 v1 h-1Z M39 14 h1 v1 h-1Z M4 15 h1 v1 h-1Z M7 15 h1 v1 h-1Z M8 15 h1 v1 h-1Z M11 15 h1 v1 h-1Z M13 15 h1 v1 h-1Z M14 15 h1 v1 h-1Z M20 15 h1 v1 h-1Z M22 15 h1 v1 h-1Z M26 15 h1 v1 h-1Z M28 15 h1 v1 h-1Z M29 15 h1 v1 h-1Z M30 15 h1 v1 h-1Z M32 15 h1 v1 h-1Z M33 15 h1 v1 h-1Z M34 15 h1 v1 h-1Z M38 15 h1 v1 h-1Z M40 15 h1 v1 h-1Z M5 16 h1 v1 h-1Z M6 16 h1 v1 h-1Z M7 16 h1 v1 h-1Z M9 16 h1 v1 h-1Z M12 16 h1 v1 h-1Z M13 16 h1 v1 h-1Z M16 16 h1 v1 h-1Z M18 16 h1 v1 h-1Z M19 16 h1 v1 h-1Z M21 16 h1 v1 h-1Z M22 16 h1 v1 h-1Z M24 16 h1 v1 h-1Z M26 16 h1 v1 h-1Z M28 16 h1 v1 h-1Z M29 16 h1 v1 h-1Z M30 16 h1 v1 h-1Z M33 16 h1 v1 h-1Z M34 16 h1 v1 h-1Z M35 16 h1 v1 h-1Z M36 16 h1 v1 h-1Z M37 16 h1 v1 h-1Z M38 16 h1 v1 h-1Z M4 17 h1 v1 h-1Z M5 17 h1 v1 h-1Z M6 17 h1 v1 h-1Z M8 17 h1 v1 h-1Z M11 17 h1 v1 h-1Z M12 17 h1 v1 h-1Z M13 17 h1 v1 h-1Z M15 17 h1 v1 h-1Z M16 17 h1 v1 h-1Z M18 17 h1 v1 h-1Z M20 17 h1 v1 h-1Z M21 17 h1 v1 h-1Z M22 17 h1 v1 h-1Z M23 17 h1 v1 h-1Z M25 17 h1 v1 h-1Z M28 17 h1 v1 h-1Z M29 17 h1 v1 h-1Z M30 17 h1 v1 h-1Z M31 17 h1 v1 h-1Z M32 17 h1 v1 h-1Z M36 17 h1 v1 h-1Z M37 17 h1 v1 h-1Z M38 17 h1 v1 h-1Z M40 17 h1 v1 h-1Z M5 18 h1 v1 h-1Z M9 18 h1 v1 h-1Z M11 18 h1 v1 h-1Z M14 18 h1 v1 h-1Z M15 18 h1 v1 h-1Z M17 18 h1 v1 h-1Z M19 18 h1 v1 h-1Z M20 18 h1 v1 h-1Z M23 18 h1 v1 h-1Z M24 18 h1 v1 h-1Z M25 18 h1 v1 h-1Z M30 18 h1 v1 h-1Z M33 18 h1 v1 h-1Z
M35 18 h1 v1 h-1Z M36 18 h1 v1 h-1Z M37 18 h1 v1 h-1Z M4 19 h1 v1 h-1Z M11 19 h1 v1 h-1Z M13 19 h1 v1 h-1Z M14 19 h1 v1 h-1Z M15 19 h1 v1 h-1Z M18 19 h1 v1 h-1Z M20 19 h1 v1 h-1Z M22 19 h1 v1 h-1Z M24 19 h1 v1 h-1Z M25 19 h1 v1 h-1Z M26 19 h1 v1 h-1Z M30 19 h1 v1 h-1Z M35 19 h1 v1 h-1Z M36 19 h1 v1 h-1Z M37 19 h1 v1 h-1Z M40 19 h1 v1 h-1Z M5 20 h1 v1 h-1Z M6 20 h1 v1 h-1Z M7 20 h1 v1 h-1Z M9 20 h1 v1 h-1Z M14 20 h1 v1 h-1Z M16 20 h1 v1 h-1Z M18 20 h1 v1 h-1Z M19 20 h1 v1 h-1Z M20 20 h1 v1 h-1Z M24 20 h1 v1 h-1Z M25 20 h1 v1 h-1Z M26 20 h1 v1 h-1Z M29 20 h1 v1 h-1Z M37 20 h1 v1 h-1Z M38 20 h1 v1 h-1Z M39 20 h1 v1 h-1Z M7 21 h1 v1 h-1Z M8 21 h1 v1 h-1Z M18 21 h1 v1 h-1Z M20 21 h1 v1 h-1Z M22 21 h1 v1 h-1Z M24 21 h1 v1 h-1Z M27 21 h1 v1 h-1Z M28 21 h1 v1 h-1Z M29 21 h1 v1 h-1Z M31 21 h1 v1 h-1Z M34 21 h1 v1 h-1Z M35 21 h1 v1 h-1Z M38 21 h1 v1 h-1Z M39 21 h1 v1 h-1Z M40 21 h1 v1 h-1Z M5 22 h1 v1 h-1Z M11 22 h1 v1 h-1Z M12 22 h1 v1 h-1Z M14 22 h1 v1 h-1Z M17 22 h1 v1 h-1Z M18 22 h1 v1 h-1Z M19 22 h1 v1 h-1Z M20 22 h1 v1 h-1Z M22 22 h1 v1 h-1Z M24 22 h1 v1 h-1Z M28 22 h1 v1 h-1Z M30 22 h1 v1 h-1Z M31 22 h1 v1 h-1Z M32 22 h1 v1 h-1Z M39 22 h1 v1 h-1Z M40 22 h1 v1 h-1Z M11 23 h1 v1 h-1Z M12 23 h1 v1 h-1Z M13 23 h1 v1 h-1Z M14 23 h1 v1 h-1Z M15 23 h1 v1 h-1Z M17 23 h1 v1 h-1Z M18 23 h1 v1 h-1Z M21 23 h1 v1 h-1Z M23 23 h1 v1 h-1Z M24 23 h1 v1 h-1Z M27 23 h1 v1 h-1Z M28 23 h1 v1 h-1Z M30 23 h1 v1 h-1Z M36 23 h1 v1 h-1Z M39 23 h1 v1 h-1Z M4 24 h1 v1 h-1Z M8 24 h1 v1 h-1Z M9 24 h1 v1 h-1Z M11 24 h1 v1 h-1Z M13 24 h1 v1 h-1Z M14 24 h1 v1 h-1Z M17 24 h1 v1 h-1Z M18 24 h1 v1 h-1Z M20 24 h1 v1 h-1Z M21 24 h1 v1 h-1Z M23 24 h1 v1 h-1Z M24 24 h1 v1 h-1Z M25 24 h1 v1 h-1Z M26 24 h1 v1 h-1Z M27 24 h1 v1 h-1Z M30 24 h1 v1 h-1Z M32 24 h1 v1 h-1Z M33 24 h1 v1 h-1Z M36 24 h1 v1 h-1Z
M37 24 h1 v1 h-1Z M39 24 h1 v1 h-1Z M4 25 h1 v1 h-1Z M7 25 h1 v1 h-1Z M8 25 h1 v1 h-1Z M9 25 h1 v1 h-1Z M13 25 h1 v1 h-1Z M14 25 h1 v1 h-1Z M19 25 h1 v1 h-1Z M20 25 h1 v1 h-1Z M24 25 h1 v1 h-1Z M27 25 h1 v1 h-1Z M32 25 h1 v1 h-1Z M37 25 h1 v1 h-1Z M38 25 h1 v1 h-1Z M39 25 h1 v1 h-1Z M4 26 h1 v1 h-1Z M6 26 h1 v1 h-1Z M8 26 h1 v1 h-1Z M9 26 h1 v1 h-1Z M11 26 h1 v1 h-1Z M12 26 h1 v1 h-1Z M14 26 h1 v1 h-1Z M18 26 h1 v1 h-1Z M19 26 h1 v1 h-1Z M25 26 h1 v1 h-1Z M26 26 h1 v1 h-1Z M27 26 h1 v1 h-1Z M28 26 h1 v1 h-1Z M33 26 h1 v1 h-1Z M37 26 h1 v1 h-1Z M5 27 h1 v1 h-1Z M9 27 h1 v1 h-1Z M11 27 h1 v1 h-1Z M14 27 h1 v1 h-1Z M15 27 h1 v1 h-1Z M16 27 h1 v1 h-1Z M17 27 h1 v1 h-1Z M18 27 h1 v1 h-1Z M19 27 h1 v1 h-1Z M22 27 h1 v1 h-1Z M23 27 h1 v1 h-1Z M24 27 h1 v1 h-1Z M26 27 h1 v1 h-1Z M27 27 h1 v1 h-1Z M28 27 h1 v1 h-1Z M29 27 h1 v1 h-1Z M30 27 h1 v1 h-1Z M31 27 h1 v1 h-1Z M33 27 h1 v1 h-1Z M36 27 h1 v1 h-1Z M38 27 h1 v1 h-1Z M5 28 h1 v1 h-1Z M7 28 h1 v1 h-1Z M11 28 h1 v1 h-1Z M13 28 h1 v1 h-1Z M14 28 h1 v1 h-1Z M15 28 h1 v1 h-1Z M20 28 h1 v1 h-1Z M21 28 h1 v1 h-1Z M22 28 h1 v1 h-1Z M23 28 h1 v1 h-1Z M26 28 h1 v1 h-1Z M27 28 h1 v1 h-1Z M28 28 h1 v1 h-1Z M29 28 h1 v1 h-1Z M31 28 h1 v1 h-1Z M33 28 h1 v1 h-1Z M34 28 h1 v1 h-1Z M36 28 h1 v1 h-1Z M38 28 h1 v1 h-1Z M39 28 h1 v1 h-1Z M40 28 h1 v1 h-1Z M5 29 h1 v1 h-1Z M6 29 h1 v1 h-1Z M8 29 h1 v1 h-1Z M11 29 h1 v1 h-1Z M12 29 h1 v1 h-1Z M13 29 h1 v1 h-1Z M15 29 h1 v1 h-1Z M17 29 h1 v1 h-1Z M22 29 h1 v1 h-1Z M23 29 h1 v1 h-1Z M26 29 h1 v1 h-1Z M28 29 h1 v1 h-1Z M29 29 h1 v1 h-1Z M30 29 h1 v1 h-1Z M32 29 h1 v1 h-1Z M33 29 h1 v1 h-1Z M34 29 h1 v1 h-1Z M36 29 h1 v1 h-1Z M40 29 h1 v1 h-1Z M5 30 h1 v1 h-1Z M6 30 h1 v1 h-1Z M8 30 h1 v1 h-1Z M9 30 h1 v1 h-1Z M12 30 h1 v1 h-1Z M14 30 h1 v1 h-1Z M16 30 h1 v1 h-1Z M18 30 h1 v1 h-1Z
M23 30 h1 v1 h-1Z M24 30 h1 v1 h-1Z M26 30 h1 v1 h-1Z M30 30 h1 v1 h-1Z M33 30 h1 v1 h-1Z M35 30 h1 v1 h-1Z M39 30 h1 v1 h-1Z M4 31 h1 v1 h-1Z M6 31 h1 v1 h-1Z M9 31 h1 v1 h-1Z M11 31 h1 v1 h-1Z M13 31 h1 v1 h-1Z M14 31 h1 v1 h-1Z M16 31 h1 v1 h-1Z M17 31 h1 v1 h-1Z M19 31 h1 v1 h-1Z M22 31 h1 v1 h-1Z M24 31 h1 v1 h-1Z M25 31 h1 v1 h-1Z M27 31 h1 v1 h-1Z M28 31 h1 v1 h-1Z M30 31 h1 v1 h-1Z M31 31 h1 v1 h-1Z M32 31 h1 v1 h-1Z M33 31 h1 v1 h-1Z M36 31 h1 v1 h-1Z M37 31 h1 v1 h-1Z M40 31 h1 v1 h-1Z M7 32 h1 v1 h-1Z M9 32 h1 v1 h-1Z M14 32 h1 v1 h-1Z M15 32 h1 v1 h-1Z M25 32 h1 v1 h-1Z M26 32 h1 v1 h-1Z M27 32 h1 v1 h-1Z M28 32 h1 v1 h-1Z M29 32 h1 v1 h-1Z M31 32 h1 v1 h-1Z M38 32 h1 v1 h-1Z M39 32 h1 v1 h-1Z M40 32 h1 v1 h-1Z M16 33 h1 v1 h-1Z M17 33 h1 v1 h-1Z M22 33 h1 v1 h-1Z M24 33 h1 v1 h-1Z M25 33 h1 v1 h-1Z M26 33 h1 v1 h-1Z M27 33 h1 v1 h-1Z M28 33 h1 v1 h-1Z M29 33 h1 v1 h-1Z M37 33 h1 v1 h-1Z M40 33 h1 v1 h-1Z M13 34 h1 v1 h-1Z M14 34 h1 v1 h-1Z M15 34 h1 v1 h-1Z M16 34 h1 v1 h-1Z M21 34 h1 v1 h-1Z M25 34 h1 v1 h-1Z M28 34 h1 v1 h-1Z M29 34 h1 v1 h-1Z M37 34 h1 v1 h-1Z M38 34 h1 v1 h-1Z M39 34 h1 v1 h-1Z M40 34 h1 v1 h-1Z M13 35 h1 v1 h-1Z M14 35 h1 v1 h-1Z M16 35 h1 v1 h-1Z M19 35 h1 v1 h-1Z M20 35 h1 v1 h-1Z M21 35 h1 v1 h-1Z M23 35 h1 v1 h-1Z M27 35 h1 v1 h-1Z M28 35 h1 v1 h-1Z M39 35 h1 v1 h-1Z M14 36 h1 v1 h-1Z M15 36 h1 v1 h-1Z M16 36 h1 v1 h-1Z M17 36 h1 v1 h-1Z M19 36 h1 v1 h-1Z M25 36 h1 v1 h-1Z M28 36 h1 v1 h-1Z M30 36 h1 v1 h-1Z M37 36 h1 v1 h-1Z M39 36 h1 v1 h-1Z M40 36 h1 v1 h-1Z M13 37 h1 v1 h-1Z M16 37 h1 v1 h-1Z M17 37 h1 v1 h-1Z M18 37 h1 v1 h-1Z M19 37 h1 v1 h-1Z M21 37 h1 v1 h-1Z M22 37 h1 v1 h-1Z M24 37 h1 v1 h-1Z M25 37 h1 v1 h-1Z M26 37 h1 v1 h-1Z M27 37 h1 v1 h-1Z M29 37 h1 v1 h-1Z M33 37 h1 v1 h-1Z M34 37 h1 v1 h-1Z M35 37 h1 v1 h-1Z
M36 37 h1 v1 h-1Z M37 37 h1 v1 h-1Z M40 37 h1 v1 h-1Z M13 38 h1 v1 h-1Z M15 38 h1 v1 h-1Z M16 38 h1 v1 h-1Z M17 38 h1 v1 h-1Z M20 38 h1 v1 h-1Z M22 38 h1 v1 h-1Z M27 38 h1 v1 h-1Z M29 38 h1 v1 h-1Z M31 38 h1 v1 h-1Z M32 38 h1 v1 h-1Z M33 38 h1 v1 h-1Z M34 38 h1 v1 h-1Z M36 38 h1 v1 h-1Z M37 38 h1 v1 h-1Z M13 39 h1 v1 h-1Z M20 39 h1 v1 h-1Z M21 39 h1 v1 h-1Z M24 39 h1 v1 h-1Z M26 39 h1 v1 h-1Z M27 39 h1 v1 h-1Z M28 39 h1 v1 h-1Z M29 39 h1 v1 h-1Z M30 39 h1 v1 h-1Z M33 39 h1 v1 h-1Z M35 39 h1 v1 h-1Z M36 39 h1 v1 h-1Z M38 39 h1 v1 h-1Z M16 40 h1 v1 h-1Z M18 40 h1 v1 h-1Z M19 40 h1 v1 h-1Z M23 40 h1 v1 h-1Z M24 40 h1 v1 h-1Z M27 40 h1 v1 h-1Z M28 40 h1 v1 h-1Z M29 40 h1 v1 h-1Z M30 40 h1 v1 h-1Z M33 40 h1 v1 h-1Z M34 40 h1 v1 h-1Z M35 40 h1 v1 h-1Z M38 40 h1 v1 h-1Z M39 40 h1 v1 h-1Z M40 40 h1 v1 h-1Z"/>
<path class="qr-2052 dark qrcode" fill="#000" fill-opacity="1" d="M4 4 h1 v1 h-1Z M5 4 h1 v1 h-1Z M6 4 h1 v1 h-1Z M7 4 h1 v1 h-1Z M8 4 h1 v1 h-1Z M9 4 h1 v1 h-1Z M10 4 h1 v1 h-1Z M34 4 h1 v1 h-1Z M35 4 h1 v1 h-1Z M36 4 h1 v1 h-1Z M37 4 h1 v1 h-1Z M38 4 h1 v1 h-1Z M39 4 h1 v1 h-1Z M40 4 h1 v1 h-1Z M4 5 h1 v1 h-1Z M10 5 h1 v1 h-1Z M34 5 h1 v1 h-1Z M40 5 h1 v1 h-1Z M4 6 h1 v1 h-1Z M10 6 h1 v1 h-1Z M34 6 h1 v1 h-1Z M40 6 h1 v1 h-1Z M4 7 h1 v1 h-1Z M10 7 h1 v1 h-1Z M34 7 h1 v1 h-1Z M40 7 h1 v1 h-1Z M4 8 h1 v1 h-1Z M10 8 h1 v1 h-1Z M34 8 h1 v1 h-1Z M40 8 h1 v1 h-1Z M4 9 h1 v1 h-1Z M10 9 h1 v1 h-1Z M34 9 h1 v1 h-1Z M40 9 h1 v1 h-1Z M4 10 h1 v1 h-1Z M5 10 h1 v1 h-1Z M6 10 h1 v1 h-1Z M7 10 h1 v1 h-1Z M8 10 h1 v1 h-1Z M9 10 h1 v1 h-1Z M10 10 h1 v1 h-1Z M34 10 h1 v1 h-1Z M35 10 h1 v1 h-1Z M36 10 h1 v1 h-1Z M37 10 h1 v1 h-1Z M38 10 h1 v1 h-1Z M39 10 h1 v1 h-1Z M40 10 h1 v1 h-1Z M4 34 h1 v1 h-1Z M5 34 h1 v1 h-1Z M6 34 h1 v1 h-1Z M7 34 h1 v1 h-1Z M8 34 h1 v1 h-1Z M9 34 h1 v1 h-1Z M10 34 h1 v1 h-1Z M4 35 h1 v1 h-1Z M10 35 h1 v1 h-1Z M4 36 h1 v1 h-1Z M10 36 h1 v1 h-1Z M4 37 h1 v1 h-1Z M10 37 h1 v1 h-1Z M4 38 h1 v1 h-1Z M10 38 h1 v1 h-1Z M4 39 h1 v1 h-1Z M10 39 h1 v1 h-1Z M4 40 h1 v1 h-1Z M5 40 h1 v1 h-1Z M6 40 h1 v1 h-1Z M7 40 h1 v1 h-1Z M8 40 h1 v1 h-1Z M9 40 h1 v1 h-1Z M10 40 h1 v1 h-1Z"/>
<path class="qr-2064 dark qrcode" fill="#000" fill-opacity="1" d="M32 32 h1 v1 h-1Z M33 32 h1 v1 h-1Z M34 32 h1 v1 h-1Z M35 32 h1 v1 h-1Z M36 32 h1 v1 h-1Z M32 33 h1 v1 h-1Z M36 33 h1 v1 h-1Z M32 34 h1 v1 h-1Z M34 34 h1 v1 h-1Z M36 34 h1 v1 h-1Z M32 35 h1 v1 h-1Z M36 35 h1 v1 h-1Z M32 36 h1 v1 h-1Z M33 36 h1 v1 h-1Z M34 36 h1 v1 h-1Z M35 36 h1 v1 h-1Z M36 36 h1 v1 h-1Z"/>
<path class="qr-2080 dark qrcode" fill="#000" fill-opacity="1" d="M12 10 h1 v1 h-1Z M14 10 h1 v1 h-1Z M16 10 h1 v1 h-1Z M18 10 h1 v1 h-1Z M20 10 h1 v1 h-1Z M22 10 h1 v1 h-1Z M24 10 h1 v1 h-1Z M26 10 h1 v1 h-1Z M28 10 h1 v1 h-1Z M30 10 h1 v1 h-1Z M32 10 h1 v1 h-1Z M10 12 h1 v1 h-1Z M10 14 h1 v1 h-1Z M10 16 h1 v1 h-1Z M10 18 h1 v1 h-1Z M10 20 h1 v1 h-1Z M10 22 h1 v1 h-1Z M10 24 h1 v1 h-1Z M10 26 h1 v1 h-1Z M10 28 h1 v1 h-1Z M10 30 h1 v1 h-1Z M10 32 h1 v1 h-1Z"/>
<path class="qr-2112 dark qrcode" fill="#000" fill-opacity="1" d="M12 4 h1 v1 h-1Z M12 6 h1 v1 h-1Z M12 7 h1 v1 h-1Z M12 8 h1 v1 h-1Z M4 12 h1 v1 h-1Z M5 12 h1 v1 h-1Z M6 12 h1 v1 h-1Z M7 12 h1 v1 h-1Z M12 12 h1 v1 h-1Z M33 12 h1 v1 h-1Z M36 12 h1 v1 h-1Z M37 12 h1 v1 h-1Z M38 12 h1 v1 h-1Z M40 12 h1 v1 h-1Z M12 37 h1 v1 h-1Z M12 38 h1 v1 h-1Z M12 39 h1 v1 h-1Z M12 40 h1 v1 h-1Z"/>
<path class="qr-3072 dark qrcode" fill="#000" fill-opacity="1" d="M6 6 h1 v1 h-1Z M7 6 h1 v1 h-1Z M8 6 h1 v1 h-1Z M36 6 h1 v1 h-1Z M37 6 h1 v1 h-1Z M38 6 h1 v1 h-1Z M6 7 h1 v1 h-1Z M7 7 h1 v1 h-1Z M8 7 h1 v1 h-1Z M36 7 h1 v1 h-1Z M37 7 h1 v1 h-1Z M38 7 h1 v1 h-1Z M6 8 h1 v1 h-1Z M7 8 h1 v1 h-1Z M8 8 h1 v1 h-1Z M36 8 h1 v1 h-1Z M37 8 h1 v1 h-1Z M38 8 h1 v1 h-1Z M6 36 h1 v1 h-1Z M7 36 h1 v1 h-1Z M8 36 h1 v1 h-1Z M6 37 h1 v1 h-1Z M7 37 h1 v1 h-1Z M8 37 h1 v1 h-1Z M6 38 h1 v1 h-1Z M7 38 h1 v1 h-1Z M8 38 h1 v1 h-1Z"/>
</svg>
