<?xml version="1.0" encoding="UTF-8"?>
<svg xmlns="http://www.w3.org/2000/svg" class="qr-svg qrcode" viewBox="0 0 45 45" preserveAspectRatio="xMidYMid">
<path class="qr-2049 dark qrcode" fill="#000" fill-opacity="1" d="M12 33 h1 v1 h-1Z"/>
<path class="qr-2050 dark qrcode" fill="#000" fill-opacity="1" d="M14 4 h1 v1 h-1Z M16 4 h1 v1 h-1Z M18 4 h1 v1 h-1Z M19 4 h1 v1 h-1Z M20 4 h1 v1 h-1Z M22 4 h1 v1 h-1Z M23 4 h1 v1 h-1Z M24 4 h1 v1 h-1Z M29 4 h1 v1 h-1Z M14 5 h1 v1 h-1Z M17 5 h1 v1 h-1Z M18 5 h1 v1 h-1Z M19 5 h1 v1 h-1Z M20 5 h1 v1 h-1Z M24 5 h1 v1 h-1Z M25 5 h1 v1 h-1Z M26 5 h1 v1 h-1Z M28 5 h1 v1 h-1Z M29 5 h1 v1 h-1Z M30 5 h1 v1 h-1Z M31 5 h1 v1 h-1Z M16 6 h1 v1 h-1Z M19 6 h1 v1 h-1Z M20 6 h1 v1 h-1Z M25 6 h1 v1 h-1Z M27 6 h1 v1 h-1Z M28 6 h1 v1 h-1Z M30 6 h1 v1 h-1Z M31 6 h1 v1 h-1Z M32 6 h1 v1 h-1Z M13 7 h1 v1 h-1Z M14 7 h1 v1 h-1Z M16 7 h1 v1 h-1Z M17 7 h1 v1 h-1Z M18 7 h1 v1 h-1Z M20 7 h1 v1 h-1Z M21 7 h1 v1 h-1Z M22 7 h1 v1 h-1Z M23 7 h1 v1 h-1Z M26 7 h1 v1 h-1Z M30 7 h1 v1 h-1Z M13 8 h1 v1 h-1Z M17 8 h1 v1 h-1Z M21 8 h1 v1 h-1Z M23 8 h1 v1 h-1Z M24 8 h1 v1 h-1Z M25 8 h1 v1 h-1Z M27 8 h1 v1 h-1Z M30 8 h1 v1 h-1Z M32 8 h1 v1 h-1Z M13 9 h1 v1 h-1Z M15 9 h1 v1 h-1Z M16 9 h1 v1 h-1Z M19 9 h1 v1 h-1Z M20 9 h1 v1 h-1Z M25 9 h1 v1 h-1Z M26 9 h1 v1 h-1Z M31 9 h1 v1 h-1Z M32 9 h1 v1 h-1Z M13 11 h1 v1 h-1Z M14 11 h1 v1 h-1Z M15 11 h1 v1 h-1Z M18 11 h1 v1 h-1Z M19 11 h1 v1 h-1Z M23 11 h1 v1 h-1Z M25 11 h1 v1 h-1Z M26 11 h1 v1 h-1Z M30 11 h1 v1 h-1Z M31 11 h1 v1 h-1Z M13 12 h1 v1 h-1Z M15 12 h1 v1 h-1Z M16 12 h1 v1 h-1Z M17 12 h1 v1 h-1Z M18 12 h1 v1 h-1Z M19 12 h1 v1 h-1Z M21 12 h1 v1 h-1Z M22 12 h1 v1 h-1Z M24 12 h1 v1 h-1Z M26 12 h1 v1 h-1Z M28 12 h1 v1 h-1Z M29 12 h1 v1 h-1Z M30 12 h1 v1 h-1Z M4 13 h1 v1 h-1Z M5 13 h1 v1 h-1Z M9 13 h1 v1 h-1Z M12 13 h1 v1 h-1Z M14 13 h1 v1 h-1Z M16 13 h1 v1 h-1Z M20 13 h1 v1 h-1Z M23 13 h1 v1 h-1Z M24 13 h1 v1 h-1Z M27 13 h1 v1 h-1Z M30 13 h1 v1 h-1Z M32 13 h1 v1 h-1Z M33 13 h1 v1 h-1Z M38 13 h1 v1 h-1Z M5 14 h1 v1 h-1Z M6 14 h1 v1 h-1Z M7 14 h1 v1 h-1Z M8 14 h1 v1 h-1Z
M9 14 h1 v1 h-1Z M11 14 h1 v1 h-1Z M13 14 h1 v1 h-1Z M19 14 h1 v1 h-1Z M20 14 h1 v1 h-1Z M21 14 h1 v1 h-1Z M24 14 h1 v1 h-1Z M25 14 h1 v1 h-1Z M28 14 h1 v1 h-1Z M29 14 h1 v1 h-1Z M31 14 h1 v1 h-1Z M32 14 h1 v1 h-1Z M34 14 h1 v1 h-1Z M35 14 h1 v1 h-1Z M38 14 h1 v1 h-1Z M40 14 h1 v1 h-1Z M6 15 h1 v1 h-1Z M11 15 h1 v1 h-1Z M12 15 h1 v1 h-1Z M14 15 h1 v1 h-1Z M17 15 h1 v1 h-1Z M18 15 h1 v1 h-1Z M22 15 h1 v1 h-1Z M24 15 h1 v1 h-1Z M25 15 h1 v1 h-1Z M26 15 h1 v1 h-1Z M33 15 h1 v1 h-1Z M34 15 h1 v1 h-1Z M37 15 h1 v1 h-1Z M4 16 h1 v1 h-1Z M5 16 h1 v1 h-1Z M6 16 h1 v1 h-1Z M7 16 h1 v1 h-1Z M8 16 h1 v1 h-1Z M9 16 h1 v1 h-1Z M13 16 h1 v1 h-1Z M15 16 h1 v1 h-1Z M16 16 h1 v1 h-1Z M18 16 h1 v1 h-1Z M19 16 h1 v1 h-1Z M20 16 h1 v1 h-1Z M21 16 h1 v1 h-1Z M22 16 h1 v1 h-1Z M26 16 h1 v1 h-1Z M27 16 h1 v1 h-1Z M28 16 h1 v1 h-1Z M29 16 h1 v1 h-1Z M30 16 h1 v1 h-1Z M31 16 h1 v1 h-1Z M34 16 h1 v1 h-1Z M35 16 h1 v1 h-1Z M36 16 h1 v1 h-1Z M37 16 h1 v1 h-1Z M38 16 h1 v1 h-1Z M8 17 h1 v1 h-1Z M13 17 h1 v1 h-1Z M15 17 h1 v1 h-1Z M16 17 h1 v1 h-1Z M20 17 h1 v1 h-1Z M23 17 h1 v1 h-1Z M24 17 h1 v1 h-1Z M25 17 h1 v1 h-1Z M26 17 h1 v1 h-1Z M27 17 h1 v1 h-1Z M32 17 h1 v1 h-1Z M38 17 h1 v1 h-1Z M39 17 h1 v1 h-1Z M6 18 h1 v1 h-1Z M8 18 h1 v1 h-1Z M9 18 h1 v1 h-1Z M14 18 h1 v1 h-1Z M15 18 h1 v1 h-1Z M17 18 h1 v1 h-1Z M19 18 h1 v1 h-1Z M20 18 h1 v1 h-1Z M24 18 h1 v1 h-1Z M25 18 h1 v1 h-1Z M26 18 h1 v1 h-1Z M28 18 h1 v1 h-1Z M29 18 h1 v1 h-1Z M31 18 h1 v1 h-1Z M32 18 h1 v1 h-1Z M33 18 h1 v1 h-1Z M36 18 h1 v1 h-1Z M38 18 h1 v1 h-1Z M40 18 h1 v1 h-1Z M5 19 h1 v1 h-1Z M6 19 h1 v1 h-1Z M11 19 h1 v1 h-1Z M12 19 h1 v1 h-1Z M15 19 h1 v1 h-1Z M16 19 h1 v1 h-1Z M17 19 h1 v1 h-1Z M18 19 h1 v1 h-1Z M19 19 h1 v1 h-1Z M20 19 h1 v1 h-1Z M23 19 h1 v1 h-1Z M25 19 h1 v1 h-1Z M30 19 h1 v1 h-1Z M31 19 h1 v1 h-1Z
M33 19 h1 v1 h-1Z M35 19 h1 v1 h-1Z M36 19 h1 v1 h-1Z M37 19 h1 v1 h-1Z M40 19 h1 v1 h-1Z M4 20 h1 v1 h-1Z M5 20 h1 v1 h-1Z M8 20 h1 v1 h-1Z M9 20 h1 v1 h-1Z M11 20 h1 v1 h-1Z M14 20 h1 v1 h-1Z M16 20 h1 v1 h-1Z M17 20 h1 v1 h-1Z M19 20 h1 v1 h-1Z M21 20 h1 v1 h-1Z M22 20 h1 v1 h-1Z M24 20 h1 v1 h-1Z M26 20 h1 v1 h-1Z M27 20 h1 v1 h-1Z M28 20 h1 v1 h-1Z M29 20 h1 v1 h-1Z M30 20 h1 v1 h-1Z M31 20 h1 v1 h-1Z M33 20 h1 v1 h-1Z M34 20 h1 v1 h-1Z M36 20 h1 v1 h-1Z M38 20 h1 v1 h-1Z M40 20 h1 v1 h-1Z M5 21 h1 v1 h-1Z M12 21 h1 v1 h-1Z M14 21 h1 v1 h-1Z M20 21 h1 v1 h-1Z M24 21 h1 v1 h-1Z M27 21 h1 v1 h-1Z M29 21 h1 v1 h-1Z M32 21 h1 v1 h-1Z M33 21 h1 v1 h-1Z M34 21 h1 v1 h-1Z M37 21 h1 v1 h-1Z M39 21 h1 v1 h-1Z M5 22 h1 v1 h-1Z M7 22 h1 v1 h-1Z M9 22 h1 v1 h-1Z M15 22 h1 v1 h-1Z M17 22 h1 v1 h-1Z M18 22 h1 v1 h-1Z M19 22 h1 v1 h-1Z M21 22 h1 v1 h-1Z M24 22 h1 v1 h-1Z M26 22 h1 v1 h-1Z M29 22 h1 v1 h-1Z M30 22 h1 v1 h-1Z M31 22 h1 v1 h-1Z M33 22 h1 v1 h-1Z M34 22 h1 v1 h-1Z M39 22 h1 v1 h-1Z M40 22 h1 v1 h-1Z M4 23 h1 v1 h-1Z M7 23 h1 v1 h-1Z M12 23 h1 v1 h-1Z M13 23 h1 v1 h-1Z M14 23 h1 v1 h-1Z M17 23 h1 v1 h-1Z M18 23 h1 v1 h-1Z M22 23 h1 v1 h-1Z M24 23 h1 v1 h-1Z M25 23 h1 v1 h-1Z M26 23 h1 v1 h-1Z M27 23 h1 v1 h-1Z M30 23 h1 v1 h-1Z M32 23 h1 v1 h-1Z M37 23 h1 v1 h-1Z M40 23 h1 v1 h-1Z M4 24 h1 v1 h-1Z M5 24 h1 v1 h-1Z M6 24 h1 v1 h-1Z M7 24 h1 v1 h-1Z M8 24 h1 v1 h-1Z M12 24 h1 v1 h-1Z M14 24 h1 v1 h-1Z M16 24 h1 v1 h-1Z M18 24 h1 v1 h-1Z M19 24 h1 v1 h-1Z M20 24 h1 v1 h-1Z M21 24 h1 v1 h-1Z M22 24 h1 v1 h-1Z M23 24 h1 v1 h-1Z M26 24 h1 v1 h-1Z M27 24 h1 v1 h-1Z M28 24 h1 v1 h-1Z M29 24 h1 v1 h-1Z M30 24 h1 v1 h-1Z M31 24 h1 v1 h-1Z M33 24 h1 v1 h-1Z M34 24 h1 v1 h-1Z M35 24 h1 v1 h-1Z M36 24 h1 v1 h-1Z M38 24 h1 v1 h-1Z M39 24 h1 v1 h-1Z M40 24 h1 v1 h-1Z
M4 25 h1 v1 h-1Z M5 25 h1 v1 h-1Z M7 25 h1 v1 h-1Z M8 25 h1 v1 h-1Z M9 25 h1 v1 h-1Z M11 25 h1 v1 h-1Z M13 25 h1 v1 h-1Z M14 25 h1 v1 h-1Z M15 25 h1 v1 h-1Z M20 25 h1 v1 h-1Z M23 25 h1 v1 h-1Z M24 25 h1 v1 h-1Z M25 25 h1 v1 h-1Z M26 25 h1 v1 h-1Z M27 25 h1 v1 h-1Z M31 25 h1 v1 h-1Z M32 25 h1 v1 h-1Z M37 25 h1 v1 h-1Z M38 25 h1 v1 h-1Z M39 25 h1 v1 h-1Z M4 26 h1 v1 h-1Z M5 26 h1 v1 h-1Z M7 26 h1 v1 h-1Z M8 26 h1 v1 h-1Z M12 26 h1 v1 h-1Z M13 26 h1 v1 h-1Z M16 26 h1 v1 h-1Z M17 26 h1 v1 h-1Z M19 26 h1 v1 h-1Z M21 26 h1 v1 h-1Z M24 26 h1 v1 h-1Z M28 26 h1 v1 h-1Z M30 26 h1 v1 h-1Z M31 26 h1 v1 h-1Z M32 26 h1 v1 h-1Z M36 26 h1 v1 h-1Z M39 26 h1 v1 h-1Z M40 26 h1 v1 h-1Z M7 27 h1 v1 h-1Z M8 27 h1 v1 h-1Z M11 27 h1 v1 h-1Z M14 27 h1 v1 h-1Z M15 27 h1 v1 h-1Z M16 27 h1 v1 h-1Z M17 27 h1 v1 h-1Z M18 27 h1 v1 h-1Z M19 27 h1 v1 h-1Z M24 27 h1 v1 h-1Z M25 27 h1 v1 h-1Z M27 27 h1 v1 h-1Z M28 27 h1 v1 h-1Z M31 27 h1 v1 h-1Z M32 27 h1 v1 h-1Z M33 27 h1 v1 h-1Z M34 27 h1 v1 h-1Z M35 27 h1 v1 h-1Z M36 27 h1 v1 h-1Z M37 27 h1 v1 h-1Z M40 27 h1 v1 h-1Z M7 28 h1 v1 h-1Z M8 28 h1 v1 h-1Z M13 28 h1 v1 h-1Z M14 28 h1 v1 h-1Z M17 28 h1 v1 h-1Z M19 28 h1 v1 h-1Z M20 28 h1 v1 h-1Z M21 28 h1 v1 h-1Z M22 28 h1 v1 h-1Z M24 28 h1 v1 h-1Z M29 28 h1 v1 h-1Z M30 28 h1 v1 h-1Z M33 28 h1 v1 h-1Z M34 28 h1 v1 h-1Z M36 28 h1 v1 h-1Z M38 28 h1 v1 h-1Z M39 28 h1 v1 h-1Z M40 28 h1 v1 h-1Z M4 29 h1 v1 h-1Z M5 29 h1 v1 h-1Z M6 29 h1 v1 h-1Z M7 29 h1 v1 h-1Z M8 29 h1 v1 h-1Z M13 29 h1 v1 h-1Z M15 29 h1 v1 h-1Z M20 29 h1 v1 h-1Z M23 29 h1 v1 h-1Z M24 29 h1 v1 h-1Z M27 29 h1 v1 h-1Z M37 29 h1 v1 h-1Z M39 29 h1 v1 h-1Z M4 30 h1 v1 h-1Z M7 30 h1 v1 h-1Z M8 30 h1 v1 h-1Z M11 30 h1 v1 h-1Z M13 30 h1 v1 h-1Z M14 30 h1 v1 h-1Z M17 30 h1 v1 h-1Z M19 30 h1 v1 h-1Z M20 30 h1 v1 h-1Z M21 30 h1 v1 h-1Z
M26 30 h1 v1 h-1Z M28 30 h1 v1 h-1Z M30 30 h1 v1 h-1Z M31 30 h1 v1 h-1Z M32 30 h1 v1 h-1Z M34 30 h1 v1 h-1Z M37 30 h1 v1 h-1Z M38 30 h1 v1 h-1Z M39 30 h1 v1 h-1Z M40 30 h1 v1 h-1Z M4 31 h1 v1 h-1Z M7 31 h1 v1 h-1Z M9 31 h1 v1 h-1Z M11 31 h1 v1 h-1Z M12 31 h1 v1 h-1Z M16 31 h1 v1 h-1Z M18 31 h1 v1 h-1Z M19 31 h1 v1 h-1Z M20 31 h1 v1 h-1Z M23 31 h1 v1 h-1Z M24 31 h1 v1 h-1Z M25 31 h1 v1 h-1Z M30 31 h1 v1 h-1Z M31 31 h1 v1 h-1Z M32 31 h1 v1 h-1Z M33 31 h1 v1 h-1Z M34 31 h1 v1 h-1Z M36 31 h1 v1 h-1Z M37 31 h1 v1 h-1Z M40 31 h1 v1 h-1Z M4 32 h1 v1 h-1Z M7 32 h1 v1 h-1Z M12 32 h1 v1 h-1Z M16 32 h1 v1 h-1Z M17 32 h1 v1 h-1Z M18 32 h1 v1 h-1Z M21 32 h1 v1 h-1Z M22 32 h1 v1 h-1Z M23 32 h1 v1 h-1Z M26 32 h1 v1 h-1Z M29 32 h1 v1 h-1Z M37 32 h1 v1 h-1Z M38 32 h1 v1 h-1Z M14 33 h1 v1 h-1Z M15 33 h1 v1 h-1Z M17 33 h1 v1 h-1Z M20 33 h1 v1 h-1Z M24 33 h1 v1 h-1Z M25 33 h1 v1 h-1Z M26 33 h1 v1 h-1Z M27 33 h1 v1 h-1Z M29 33 h1 v1 h-1Z M31 33 h1 v1 h-1Z M38 33 h1 v1 h-1Z M17 34 h1 v1 h-1Z M18 34 h1 v1 h-1Z M19 34 h1 v1 h-1Z M20 34 h1 v1 h-1Z M24 34 h1 v1 h-1Z M25 34 h1 v1 h-1Z M28 34 h1 v1 h-1Z M29 34 h1 v1 h-1Z M30 34 h1 v1 h-1Z M37 34 h1 v1 h-1Z M38 34 h1 v1 h-1Z M39 34 h1 v1 h-1Z M40 34 h1 v1 h-1Z M15 35 h1 v1 h-1Z M16 35 h1 v1 h-1Z M18 35 h1 v1 h-1Z M19 35 h1 v1 h-1Z M20 35 h1 v1 h-1Z M23 35 h1 v1 h-1Z M24 35 h1 v1 h-1Z M25 35 h1 v1 h-1Z M27 35 h1 v1 h-1Z M30 35 h1 v1 h-1Z M37 35 h1 v1 h-1Z M14 36 h1 v1 h-1Z M16 36 h1 v1 h-1Z M18 36 h1 v1 h-1Z M19 36 h1 v1 h-1Z M21 36 h1 v1 h-1Z M22 36 h1 v1 h-1Z M23 36 h1 v1 h-1Z M24 36 h1 v1 h-1Z M26 36 h1 v1 h-1Z M27 36 h1 v1 h-1Z M28 36 h1 v1 h-1Z M29 36 h1 v1 h-1Z M30 36 h1 v1 h-1Z M31 36 h1 v1 h-1Z M38 36 h1 v1 h-1Z M39 36 h1 v1 h-1Z M40 36 h1 v1 h-1Z M14 37 h1 v1 h-1Z M15 37 h1 v1 h-1Z M17 37 h1 v1 h-1Z M19 37 h1 v1 h-1Z M20 37 h1 v1 h-1Z
M21 37 h1 v1 h-1Z M23 37 h1 v1 h-1Z M27 37 h1 v1 h-1Z M33 37 h1 v1 h-1Z M34 37 h1 v1 h-1Z M35 37 h1 v1 h-1Z M36 37 h1 v1 h-1Z M37 37 h1 v1 h-1Z M17 38 h1 v1 h-1Z M19 38 h1 v1 h-1Z M22 38 h1 v1 h-1Z M25 38 h1 v1 h-1Z M29 38 h1 v1 h-1Z M39 38 h1 v1 h-1Z M40 38 h1 v1 h-1Z M16 39 h1 v1 h-1Z M20 39 h1 v1 h-1Z M22 39 h1 v1 h-1Z M25 39 h1 v1 h-1Z M27 39 h1 v1 h-1Z M30 39 h1 v1 h-1Z M31 39 h1 v1 h-1Z M32 39 h1 v1 h-1Z M33 39 h1 v1 h-1Z M34 39 h1 v1 h-1Z M36 39 h1 v1 h-1Z M37 39 h1 v1 h-1Z M40 39 h1 v1 h-1Z M13 40 h1 v1 h-1Z M14 40 h1 v1 h-1Z M16 40 h1 v1 h-1Z M17 40 h1 v1 h-1Z M18 40 h1 v1 h-1Z M19 40 h1 v1 h-1Z M21 40 h1 v1 h-1Z M22 40 h1 v1 h-1Z M24 40 h1 v1 h-1Z M26 40 h1 v1 h-1Z M27 40 h1 v1 h-1Z M28 40 h1 v1 h-1Z M29 40 h1 v1 h-1Z M30 40 h1 v1 h-1Z M33 40 h1 v1 h-1Z M35 40 h1 v1 h-1Z M38 40 h1 v1 h-1Z M39 40 h1 v1 h-1Z M40 40 h1 v1 h-1Z"/>
<path class="qr-2052 dark qrcode" fill="#000" fill-opacity="1" d="M4 4 h1 v1 h-1Z M5 4 h1 v1 h-1Z M6 4 h1 v1 h-1Z M7 4 h1 v1 h-1Z M8 4 h1 v1 h-1Z M9 4 h1 v1 h-1Z M10 4 h1 v1 h-1Z M34 4 h1 v1 h-1Z M35 4 h1 v1 h-1Z M36 4 h1 v1 h-1Z M37 4 h1 v1 h-1Z M38 4 h1 v1 h-1Z M39 4 h1 v1 h-1Z M40 4 h1 v1 h-1Z M4 5 h1 v1 h-1Z M10 5 h1 v1 h-1Z M34 5 h1 v1 h-1Z M40 5 h1 v1 h-1Z M4 6 h1 v1 h-1Z M10 6 h1 v1 h-1Z M34 6 h1 v1 h-1Z M40 6 h1 v1 h-1Z M4 7 h1 v1 h-1Z M10 7 h1 v1 h-1Z M34 7 h1 v1 h-1Z M40 7 h1 v1 h-1Z M4 8 h1 v1 h-1Z M10 8 h1 v1 h-1Z M34 8 h1 v1 h-1Z M40 8 h1 v1 h-1Z M4 9 h1 v1 h-1Z M10 9 h1 v1 h-1Z M34 9 h1 v1 h-1Z M40 9 h1 v1 h-1Z M4 10 h1 v1 h-1Z M5 10 h1 v1 h-1Z M6 10 h1 v1 h-1Z M7 10 h1 v1 h-1Z M8 10 h1 v1 h-1Z M9 10 h1 v1 h-1Z M10 10 h1 v1 h-1Z M34 10 h1 v1 h-1Z M35 10 h1 v1 h-1Z M36 10 h1 v1 h-1Z M37 10 h1 v1 h-1Z M38 10 h1 v1 h-1Z M39 10 h1 v1 h-1Z M40 10 h1 v1 h-1Z M4 34 h1 v1 h-1Z M5 34 h1 v1 h-1Z M6 34 h1 v1 h-1Z M7 34 h1 v1 h-1Z M8 34 h1 v1 h-1Z M9 34 h1 v1 h-1Z M10 34 h1 v1 h-1Z M4 35 h1 v1 h-1Z M10 35 h1 v1 h-1Z M4 36 h1 v1 h-1Z M10 36 h1 v1 h-1Z M4 37 h1 v1 h-1Z M10 37 h1 v1 h-1Z M4 38 h1 v1 h-1Z M10 38 h1 v1 h-1Z M4 39 h1 v1 h-1Z M10 39 h1 v1 h-1Z M4 40 h1 v1 h-1Z M5 40 h1 v1 h-1Z M6 40 h1 v1 h-1Z M7 40 h1 v1 h-1Z M8 40 h1 v1 h-1Z M9 40 h1 v1 h-1Z M10 40 h1 v1 h-1Z"/>
<path class="qr-2064 dark qrcode" fill="#000" fill-opacity="1" d="M32 32 h1 v1 h-1Z M33 32 h1 v1 h-1Z M34 32 h1 v1 h-1Z M35 32 h1 v1 h-1Z M36 32 h1 v1 h-1Z M32 33 h1 v1 h-1Z M36 33 h1 v1 h-1Z M32 34 h1 v1 h-1Z M34 34 h1 v1 h-1Z M36 34 h1 v1 h-1Z M32 35 h1 v1 h-1Z M36 35 h1 v1 h-1Z M32 36 h1 v1 h-1Z M33 36 h1 v1 h-1Z M34 36 h1 v1 h-1Z M35 36 h1 v1 h-1Z M36 36 h1 v1 h-1Z"/>
<path class="qr-2080 dark qrcode" fill="#000" fill-opacity="1" d="M12 10 h1 v1 h-1Z M14 10 h1 v1 h-1Z M16 10 h1 v1 h-1Z M18 10 h1 v1 h-1Z M20 10 h1 v1 h-1Z M22 10 h1 v1 h-1Z M24 10 h1 v1 h-1Z M26 10 h1 v1 h-1Z M28 10 h1 v1 h-1Z M30 10 h1 v1 h-1Z M32 10 h1 v1 h-1Z M10 12 h1 v1 h-1Z M10 14 h1 v1 h-1Z M10 16 h1 v1 h-1Z M10 18 h1 v1 h-1Z M10 20 h1 v1 h-1Z M10 22 h1 v1 h-1Z M10 24 h1 v1 h-1Z M10 26 h1 v1 h-1Z M10 28 h1 v1 h-1Z M10 30 h1 v1 h-1Z M10 32 h1 v1 h-1Z"/>
<path class="qr-2112 dark qrcode" fill="#000" fill-opacity="1" d="M12 5 h1 v1 h-1Z M12 7 h1 v1 h-1Z M12 9 h1 v1 h-1Z M4 12 h1 v1 h-1Z M5 12 h1 v1 h-1Z M6 12 h1 v1 h-1Z M7 12 h1 v1 h-1Z M8 12 h1 v1 h-1Z M11 12 h1 v1 h-1Z M12 12 h1 v1 h-1Z M33 12 h1 v1 h-1Z M35 12 h1 v1 h-1Z M37 12 h1 v1 h-1Z M39 12 h1 v1 h-1Z M12 34 h1 v1 h-1Z M12 36 h1 v1 h-1Z M12 37 h1 v1 h-1Z M12 38 h1 v1 h-1Z M12 39 h1 v1 h-1Z M12 40 h1 v1 h-1Z"/>
<path class="qr-3072 dark qrcode" fill="#000" fill-opacity="1" d="M6 6 h1 v1 h-1Z M7 6 h1 v1 h-1Z M8 6 h1 v1 h-1Z M36 6 h1 v1 h-1Z M37 6 h1 v1 h-1Z M38 6 h1 v1 h-1Z M6 7 h1 v1 h-1Z M7 7 h1 v1 h-1Z M8 7 h1 v1 h-1Z M36 7 h1 v1 h-1Z M37 7 h1 v1 h-1Z M38 7 h1 v1 h-1Z M6 8 h1 v1 h-1Z M7 8 h1 v1 h-1Z M8 8 h1 v1 h-1Z M36 8 h1 v1 h-1Z M37 8 h1 v1 h-1Z M38 8 h1 v1 h-1Z M6 36 h1 v1 h-1Z M7 36 h1 v1 h-1Z M8 36 h1 v1 h-1Z M6 37 h1 v1 h-1Z M7 37 h1 v1 h-1Z M8 37 h1 v1 h-1Z M6 38 h1 v1 h-1Z M7 38 h1 v1 h-1Z M8 38 h1 v1 h-1Z"/>
</svg>
