<?xml version="1.0" encoding="UTF-8"?>
<svg xmlns="http://www.w3.org/2000/svg" class="qr-svg qrcode" viewBox="0 0 45 45" preserveAspectRatio="xMidYMid">
<path class="qr-2049 dark qrcode" fill="#000" fill-opacity="1" d="M12 33 h1 v1 h-1Z"/>
<path class="qr-2050 dark qrcode" fill="#000" fill-opacity="1" d="M15 4 h1 v1 h-1Z M16 4 h1 v1 h-1Z M19 4 h1 v1 h-1Z M20 4 h1 v1 h-1Z M24 4 h1 v1 h-1Z M25 4 h1 v1 h-1Z M26 4 h1 v1 h-1Z M29 4 h1 v1 h-1Z M31 4 h1 v1 h-1Z M13 5 h1 v1 h-1Z M14 5 h1 v1 h-1Z M20 5 h1 v1 h-1Z M23 5 h1 v1 h-1Z M26 5 h1 v1 h-1Z M28 5 h1 v1 h-1Z M29 5 h1 v1 h-1Z M30 5 h1 v1 h-1Z M32 5 h1 v1 h-1Z M14 6 h1 v1 h-1Z M16 6 h1 v1 h-1Z M19 6 h1 v1 h-1Z M20 6 h1 v1 h-1Z M23 6 h1 v1 h-1Z M24 6 h1 v1 h-1Z M25 6 h1 v1 h-1Z M29 6 h1 v1 h-1Z M30 6 h1 v1 h-1Z M16 7 h1 v1 h-1Z M20 7 h1 v1 h-1Z M21 7 h1 v1 h-1Z M22 7 h1 v1 h-1Z M24 7 h1 v1 h-1Z M25 7 h1 v1 h-1Z M27 7 h1 v1 h-1Z M28 7 h1 v1 h-1Z M29 7 h1 v1 h-1Z M31 7 h1 v1 h-1Z M32 7 h1 v1 h-1Z M13 8 h1 v1 h-1Z M15 8 h1 v1 h-1Z M18 8 h1 v1 h-1Z M19 8 h1 v1 h-1Z M20 8 h1 v1 h-1Z M21 8 h1 v1 h-1Z M23 8 h1 v1 h-1Z M27 8 h1 v1 h-1Z M14 9 h1 v1 h-1Z M16 9 h1 v1 h-1Z M19 9 h1 v1 h-1Z M20 9 h1 v1 h-1Z M24 9 h1 v1 h-1Z M26 9 h1 v1 h-1Z M27 9 h1 v1 h-1Z M28 9 h1 v1 h-1Z M29 9 h1 v1 h-1Z M32 9 h1 v1 h-1Z M14 11 h1 v1 h-1Z M15 11 h1 v1 h-1Z M17 11 h1 v1 h-1Z M19 11 h1 v1 h-1Z M20 11 h1 v1 h-1Z M23 11 h1 v1 h-1Z M24 11 h1 v1 h-1Z M26 11 h1 v1 h-1Z M27 11 h1 v1 h-1Z M28 11 h1 v1 h-1Z M29 11 h1 v1 h-1Z M30 11 h1 v1 h-1Z M32 11 h1 v1 h-1Z M13 12 h1 v1 h-1Z M14 12 h1 v1 h-1Z M15 12 h1 v1 h-1Z M17 12 h1 v1 h-1Z M21 12 h1 v1 h-1Z M22 12 h1 v1 h-1Z M30 12 h1 v1 h-1Z M32 12 h1 v1 h-1Z M5 13 h1 v1 h-1Z M8 13 h1 v1 h-1Z M11 13 h1 v1 h-1Z M16 13 h1 v1 h-1Z M17 13 h1 v1 h-1Z M20 13 h1 v1 h-1Z M21 13 h1 v1 h-1Z M23 13 h1 v1 h-1Z M27 13 h1 v1 h-1Z M30 13 h1 v1 h-1Z M31 13 h1 v1 h-1Z M36 13 h1 v1 h-1Z M37 13 h1 v1 h-1Z M6 14 h1 v1 h-1Z M8 14 h1 v1 h-1Z M11 14 h1 v1 h-1Z M13 14 h1 v1 h-1Z M15 14 h1 v1 h-1Z M17 14 h1 v1 h-1Z M19 14 h1 v1 h-1Z M20 14 h1 v1 h-1Z M21 14 h1 v1 h-1Z M22 14 h1 v1 h-1Z
M24 14 h1 v1 h-1Z M25 14 h1 v1 h-1Z M26 14 h1 v1 h-1Z M27 14 h1 v1 h-1Z M29 14 h1 v1 h-1Z M30 14 h1 v1 h-1Z M31 14 h1 v1 h-1Z M32 14 h1 v1 h-1Z M36 14 h1 v1 h-1Z M38 14 h1 v1 h-1Z M39 14 h1 v1 h-1Z M40 14 h1 v1 h-1Z M4 15 h1 v1 h-1Z M6 15 h1 v1 h-1Z M7 15 h1 v1 h-1Z M11 15 h1 v1 h-1Z M12 15 h1 v1 h-1Z M15 15 h1 v1 h-1Z M16 15 h1 v1 h-1Z M17 15 h1 v1 h-1Z M20 15 h1 v1 h-1Z M21 15 h1 v1 h-1Z M22 15 h1 v1 h-1Z M23 15 h1 v1 h-1Z M26 15 h1 v1 h-1Z M27 15 h1 v1 h-1Z M30 15 h1 v1 h-1Z M32 15 h1 v1 h-1Z M35 15 h1 v1 h-1Z M38 15 h1 v1 h-1Z M39 15 h1 v1 h-1Z M4 16 h1 v1 h-1Z M6 16 h1 v1 h-1Z M7 16 h1 v1 h-1Z M11 16 h1 v1 h-1Z M13 16 h1 v1 h-1Z M15 16 h1 v1 h-1Z M16 16 h1 v1 h-1Z M17 16 h1 v1 h-1Z M19 16 h1 v1 h-1Z M20 16 h1 v1 h-1Z M22 16 h1 v1 h-1Z M23 16 h1 v1 h-1Z M27 16 h1 v1 h-1Z M28 16 h1 v1 h-1Z M32 16 h1 v1 h-1Z M34 16 h1 v1 h-1Z M37 16 h1 v1 h-1Z M39 16 h1 v1 h-1Z M4 17 h1 v1 h-1Z M6 17 h1 v1 h-1Z M8 17 h1 v1 h-1Z M12 17 h1 v1 h-1Z M17 17 h1 v1 h-1Z M18 17 h1 v1 h-1Z M20 17 h1 v1 h-1Z M25 17 h1 v1 h-1Z M27 17 h1 v1 h-1Z M30 17 h1 v1 h-1Z M31 17 h1 v1 h-1Z M32 17 h1 v1 h-1Z M33 17 h1 v1 h-1Z M34 17 h1 v1 h-1Z M35 17 h1 v1 h-1Z M36 17 h1 v1 h-1Z M37 17 h1 v1 h-1Z M38 17 h1 v1 h-1Z M39 17 h1 v1 h-1Z M9 18 h1 v1 h-1Z M13 18 h1 v1 h-1Z M15 18 h1 v1 h-1Z M16 18 h1 v1 h-1Z M17 18 h1 v1 h-1Z M20 18 h1 v1 h-1Z M22 18 h1 v1 h-1Z M23 18 h1 v1 h-1Z M24 18 h1 v1 h-1Z M28 18 h1 v1 h-1Z M30 18 h1 v1 h-1Z M31 18 h1 v1 h-1Z M33 18 h1 v1 h-1Z M34 18 h1 v1 h-1Z M35 18 h1 v1 h-1Z M36 18 h1 v1 h-1Z M40 18 h1 v1 h-1Z M6 19 h1 v1 h-1Z M7 19 h1 v1 h-1Z M8 19 h1 v1 h-1Z M13 19 h1 v1 h-1Z M14 19 h1 v1 h-1Z M15 19 h1 v1 h-1Z M19 19 h1 v1 h-1Z M22 19 h1 v1 h-1Z M31 19 h1 v1 h-1Z M32 19 h1 v1 h-1Z M35 19 h1 v1 h-1Z M38 19 h1 v1 h-1Z M40 19 h1 v1 h-1Z M4 20 h1 v1 h-1Z M5 20 h1 v1 h-1Z
M6 20 h1 v1 h-1Z M7 20 h1 v1 h-1Z M8 20 h1 v1 h-1Z M11 20 h1 v1 h-1Z M13 20 h1 v1 h-1Z M14 20 h1 v1 h-1Z M18 20 h1 v1 h-1Z M20 20 h1 v1 h-1Z M22 20 h1 v1 h-1Z M24 20 h1 v1 h-1Z M26 20 h1 v1 h-1Z M28 20 h1 v1 h-1Z M29 20 h1 v1 h-1Z M31 20 h1 v1 h-1Z M34 20 h1 v1 h-1Z M38 20 h1 v1 h-1Z M39 20 h1 v1 h-1Z M40 20 h1 v1 h-1Z M4 21 h1 v1 h-1Z M5 21 h1 v1 h-1Z M6 21 h1 v1 h-1Z M7 21 h1 v1 h-1Z M9 21 h1 v1 h-1Z M11 21 h1 v1 h-1Z M12 21 h1 v1 h-1Z M13 21 h1 v1 h-1Z M14 21 h1 v1 h-1Z M15 21 h1 v1 h-1Z M16 21 h1 v1 h-1Z M17 21 h1 v1 h-1Z M18 21 h1 v1 h-1Z M20 21 h1 v1 h-1Z M21 21 h1 v1 h-1Z M23 21 h1 v1 h-1Z M24 21 h1 v1 h-1Z M31 21 h1 v1 h-1Z M33 21 h1 v1 h-1Z M38 21 h1 v1 h-1Z M4 22 h1 v1 h-1Z M7 22 h1 v1 h-1Z M12 22 h1 v1 h-1Z M13 22 h1 v1 h-1Z M14 22 h1 v1 h-1Z M15 22 h1 v1 h-1Z M19 22 h1 v1 h-1Z M21 22 h1 v1 h-1Z M23 22 h1 v1 h-1Z M26 22 h1 v1 h-1Z M27 22 h1 v1 h-1Z M28 22 h1 v1 h-1Z M29 22 h1 v1 h-1Z M31 22 h1 v1 h-1Z M33 22 h1 v1 h-1Z M35 22 h1 v1 h-1Z M36 22 h1 v1 h-1Z M38 22 h1 v1 h-1Z M40 22 h1 v1 h-1Z M5 23 h1 v1 h-1Z M6 23 h1 v1 h-1Z M8 23 h1 v1 h-1Z M9 23 h1 v1 h-1Z M13 23 h1 v1 h-1Z M16 23 h1 v1 h-1Z M18 23 h1 v1 h-1Z M22 23 h1 v1 h-1Z M24 23 h1 v1 h-1Z M29 23 h1 v1 h-1Z M30 23 h1 v1 h-1Z M33 23 h1 v1 h-1Z M34 23 h1 v1 h-1Z M35 23 h1 v1 h-1Z M36 23 h1 v1 h-1Z M40 23 h1 v1 h-1Z M4 24 h1 v1 h-1Z M5 24 h1 v1 h-1Z M6 24 h1 v1 h-1Z M12 24 h1 v1 h-1Z M13 24 h1 v1 h-1Z M14 24 h1 v1 h-1Z M16 24 h1 v1 h-1Z M17 24 h1 v1 h-1Z M18 24 h1 v1 h-1Z M19 24 h1 v1 h-1Z M20 24 h1 v1 h-1Z M21 24 h1 v1 h-1Z M22 24 h1 v1 h-1Z M23 24 h1 v1 h-1Z M24 24 h1 v1 h-1Z M26 24 h1 v1 h-1Z M27 24 h1 v1 h-1Z M28 24 h1 v1 h-1Z M30 24 h1 v1 h-1Z M31 24 h1 v1 h-1Z M32 24 h1 v1 h-1Z M33 24 h1 v1 h-1Z M34 24 h1 v1 h-1Z M36 24 h1 v1 h-1Z M39 24 h1 v1 h-1Z M40 24 h1 v1 h-1Z M4 25 h1 v1 h-1Z
M7 25 h1 v1 h-1Z M8 25 h1 v1 h-1Z M11 25 h1 v1 h-1Z M18 25 h1 v1 h-1Z M25 25 h1 v1 h-1Z M26 25 h1 v1 h-1Z M27 25 h1 v1 h-1Z M30 25 h1 v1 h-1Z M31 25 h1 v1 h-1Z M36 25 h1 v1 h-1Z M39 25 h1 v1 h-1Z M7 26 h1 v1 h-1Z M8 26 h1 v1 h-1Z M13 26 h1 v1 h-1Z M14 26 h1 v1 h-1Z M16 26 h1 v1 h-1Z M18 26 h1 v1 h-1Z M21 26 h1 v1 h-1Z M26 26 h1 v1 h-1Z M27 26 h1 v1 h-1Z M31 26 h1 v1 h-1Z M33 26 h1 v1 h-1Z M34 26 h1 v1 h-1Z M40 26 h1 v1 h-1Z M4 27 h1 v1 h-1Z M6 27 h1 v1 h-1Z M8 27 h1 v1 h-1Z M9 27 h1 v1 h-1Z M11 27 h1 v1 h-1Z M13 27 h1 v1 h-1Z M14 27 h1 v1 h-1Z M18 27 h1 v1 h-1Z M19 27 h1 v1 h-1Z M21 27 h1 v1 h-1Z M24 27 h1 v1 h-1Z M26 27 h1 v1 h-1Z M30 27 h1 v1 h-1Z M31 27 h1 v1 h-1Z M34 27 h1 v1 h-1Z M35 27 h1 v1 h-1Z M36 27 h1 v1 h-1Z M38 27 h1 v1 h-1Z M39 27 h1 v1 h-1Z M40 27 h1 v1 h-1Z M4 28 h1 v1 h-1Z M6 28 h1 v1 h-1Z M7 28 h1 v1 h-1Z M12 28 h1 v1 h-1Z M13 28 h1 v1 h-1Z M17 28 h1 v1 h-1Z M18 28 h1 v1 h-1Z M22 28 h1 v1 h-1Z M24 28 h1 v1 h-1Z M28 28 h1 v1 h-1Z M30 28 h1 v1 h-1Z M31 28 h1 v1 h-1Z M32 28 h1 v1 h-1Z M34 28 h1 v1 h-1Z M35 28 h1 v1 h-1Z M40 28 h1 v1 h-1Z M4 29 h1 v1 h-1Z M5 29 h1 v1 h-1Z M6 29 h1 v1 h-1Z M8 29 h1 v1 h-1Z M9 29 h1 v1 h-1Z M11 29 h1 v1 h-1Z M12 29 h1 v1 h-1Z M16 29 h1 v1 h-1Z M26 29 h1 v1 h-1Z M27 29 h1 v1 h-1Z M30 29 h1 v1 h-1Z M32 29 h1 v1 h-1Z M35 29 h1 v1 h-1Z M36 29 h1 v1 h-1Z M39 29 h1 v1 h-1Z M4 30 h1 v1 h-1Z M5 30 h1 v1 h-1Z M7 30 h1 v1 h-1Z M8 30 h1 v1 h-1Z M9 30 h1 v1 h-1Z M12 30 h1 v1 h-1Z M14 30 h1 v1 h-1Z M18 30 h1 v1 h-1Z M19 30 h1 v1 h-1Z M22 30 h1 v1 h-1Z M23 30 h1 v1 h-1Z M24 30 h1 v1 h-1Z M25 30 h1 v1 h-1Z M26 30 h1 v1 h-1Z M28 30 h1 v1 h-1Z M30 30 h1 v1 h-1Z M31 30 h1 v1 h-1Z M33 30 h1 v1 h-1Z M34 30 h1 v1 h-1Z M35 30 h1 v1 h-1Z M37 30 h1 v1 h-1Z M39 30 h1 v1 h-1Z M40 30 h1 v1 h-1Z M4 31 h1 v1 h-1Z M9 31 h1 v1 h-1Z
M11 31 h1 v1 h-1Z M13 31 h1 v1 h-1Z M14 31 h1 v1 h-1Z M16 31 h1 v1 h-1Z M17 31 h1 v1 h-1Z M18 31 h1 v1 h-1Z M20 31 h1 v1 h-1Z M22 31 h1 v1 h-1Z M26 31 h1 v1 h-1Z M27 31 h1 v1 h-1Z M28 31 h1 v1 h-1Z M33 31 h1 v1 h-1Z M38 31 h1 v1 h-1Z M40 31 h1 v1 h-1Z M4 32 h1 v1 h-1Z M6 32 h1 v1 h-1Z M9 32 h1 v1 h-1Z M11 32 h1 v1 h-1Z M12 32 h1 v1 h-1Z M14 32 h1 v1 h-1Z M15 32 h1 v1 h-1Z M16 32 h1 v1 h-1Z M19 32 h1 v1 h-1Z M22 32 h1 v1 h-1Z M26 32 h1 v1 h-1Z M27 32 h1 v1 h-1Z M29 32 h1 v1 h-1Z M37 32 h1 v1 h-1Z M38 32 h1 v1 h-1Z M39 32 h1 v1 h-1Z M14 33 h1 v1 h-1Z M15 33 h1 v1 h-1Z M21 33 h1 v1 h-1Z M23 33 h1 v1 h-1Z M24 33 h1 v1 h-1Z M25 33 h1 v1 h-1Z M26 33 h1 v1 h-1Z M37 33 h1 v1 h-1Z M39 33 h1 v1 h-1Z M13 34 h1 v1 h-1Z M14 34 h1 v1 h-1Z M16 34 h1 v1 h-1Z M17 34 h1 v1 h-1Z M18 34 h1 v1 h-1Z M20 34 h1 v1 h-1Z M21 34 h1 v1 h-1Z M23 34 h1 v1 h-1Z M24 34 h1 v1 h-1Z M25 34 h1 v1 h-1Z M26 34 h1 v1 h-1Z M27 34 h1 v1 h-1Z M28 34 h1 v1 h-1Z M30 34 h1 v1 h-1Z M37 34 h1 v1 h-1Z M40 34 h1 v1 h-1Z M14 35 h1 v1 h-1Z M15 35 h1 v1 h-1Z M17 35 h1 v1 h-1Z M19 35 h1 v1 h-1Z M20 35 h1 v1 h-1Z M22 35 h1 v1 h-1Z M29 35 h1 v1 h-1Z M40 35 h1 v1 h-1Z M15 36 h1 v1 h-1Z M17 36 h1 v1 h-1Z M22 36 h1 v1 h-1Z M30 36 h1 v1 h-1Z M31 36 h1 v1 h-1Z M39 36 h1 v1 h-1Z M16 37 h1 v1 h-1Z M17 37 h1 v1 h-1Z M20 37 h1 v1 h-1Z M21 37 h1 v1 h-1Z M22 37 h1 v1 h-1Z M27 37 h1 v1 h-1Z M29 37 h1 v1 h-1Z M30 37 h1 v1 h-1Z M31 37 h1 v1 h-1Z M32 37 h1 v1 h-1Z M33 37 h1 v1 h-1Z M34 37 h1 v1 h-1Z M35 37 h1 v1 h-1Z M38 37 h1 v1 h-1Z M40 37 h1 v1 h-1Z M13 38 h1 v1 h-1Z M14 38 h1 v1 h-1Z M15 38 h1 v1 h-1Z M17 38 h1 v1 h-1Z M19 38 h1 v1 h-1Z M20 38 h1 v1 h-1Z M25 38 h1 v1 h-1Z M27 38 h1 v1 h-1Z M28 38 h1 v1 h-1Z M29 38 h1 v1 h-1Z M32 38 h1 v1 h-1Z M33 38 h1 v1 h-1Z M36 38 h1 v1 h-1Z M40 38 h1 v1 h-1Z M15 39 h1 v1 h-1Z M16 39 h1 v1 h-1Z
M17 39 h1 v1 h-1Z M20 39 h1 v1 h-1Z M22 39 h1 v1 h-1Z M23 39 h1 v1 h-1Z M24 39 h1 v1 h-1Z M26 39 h1 v1 h-1Z M30 39 h1 v1 h-1Z M34 39 h1 v1 h-1Z M36 39 h1 v1 h-1Z M38 39 h1 v1 h-1Z M39 39 h1 v1 h-1Z M40 39 h1 v1 h-1Z M14 40 h1 v1 h-1Z M15 40 h1 v1 h-1Z M16 40 h1 v1 h-1Z M17 40 h1 v1 h-1Z M19 40 h1 v1 h-1Z M20 40 h1 v1 h-1Z M21 40 h1 v1 h-1Z M26 40 h1 v1 h-1Z M28 40 h1 v1 h-1Z M32 40 h1 v1 h-1Z M34 40 h1 v1 h-1Z M36 40 h1 v1 h-1Z M40 40 h1 v1 h-1Z"/>
<path class="qr-2052 dark qrcode" fill="#000" fill-opacity="1" d="M4 4 h1 v1 h-1Z M5 4 h1 v1 h-1Z M6 4 h1 v1 h-1Z M7 4 h1 v1 h-1Z M8 4 h1 v1 h-1Z M9 4 h1 v1 h-1Z M10 4 h1 v1 h-1Z M34 4 h1 v1 h-1Z M35 4 h1 v1 h-1Z M36 4 h1 v1 h-1Z M37 4 h1 v1 h-1Z M38 4 h1 v1 h-1Z M39 4 h1 v1 h-1Z M40 4 h1 v1 h-1Z M4 5 h1 v1 h-1Z M10 5 h1 v1 h-1Z M34 5 h1 v1 h-1Z M40 5 h1 v1 h-1Z M4 6 h1 v1 h-1Z M10 6 h1 v1 h-1Z M34 6 h1 v1 h-1Z M40 6 h1 v1 h-1Z M4 7 h1 v1 h-1Z M10 7 h1 v1 h-1Z M34 7 h1 v1 h-1Z M40 7 h1 v1 h-1Z M4 8 h1 v1 h-1Z M10 8 h1 v1 h-1Z M34 8 h1 v1 h-1Z M40 8 h1 v1 h-1Z M4 9 h1 v1 h-1Z M10 9 h1 v1 h-1Z M34 9 h1 v1 h-1Z M40 9 h1 v1 h-1Z M4 10 h1 v1 h-1Z M5 10 h1 v1 h-1Z M6 10 h1 v1 h-1Z M7 10 h1 v1 h-1Z M8 10 h1 v1 h-1Z M9 10 h1 v1 h-1Z M10 10 h1 v1 h-1Z M34 10 h1 v1 h-1Z M35 10 h1 v1 h-1Z M36 10 h1 v1 h-1Z M37 10 h1 v1 h-1Z M38 10 h1 v1 h-1Z M39 10 h1 v1 h-1Z M40 10 h1 v1 h-1Z M4 34 h1 v1 h-1Z M5 34 h1 v1 h-1Z M6 34 h1 v1 h-1Z M7 34 h1 v1 h-1Z M8 34 h1 v1 h-1Z M9 34 h1 v1 h-1Z M10 34 h1 v1 h-1Z M4 35 h1 v1 h-1Z M10 35 h1 v1 h-1Z M4 36 h1 v1 h-1Z M10 36 h1 v1 h-1Z M4 37 h1 v1 h-1Z M10 37 h1 v1 h-1Z M4 38 h1 v1 h-1Z M10 38 h1 v1 h-1Z M4 39 h1 v1 h-1Z M10 39 h1 v1 h-1Z M4 40 h1 v1 h-1Z M5 40 h1 v1 h-1Z M6 40 h1 v1 h-1Z M7 40 h1 v1 h-1Z M8 40 h1 v1 h-1Z M9 40 h1 v1 h-1Z M10 40 h1 v1 h-1Z"/>
<path class="qr-2064 dark qrcode" fill="#000" fill-opacity="1" d="M32 32 h1 v1 h-1Z M33 32 h1 v1 h-1Z M34 32 h1 v1 h-1Z M35 32 h1 v1 h-1Z M36 32 h1 v1 h-1Z M32 33 h1 v1 h-1Z M36 33 h1 v1 h-1Z M32 34 h1 v1 h-1Z M34 34 h1 v1 h-1Z M36 34 h1 v1 h-1Z M32 35 h1 v1 h-1Z M36 35 h1 v1 h-1Z M32 36 h1 v1 h-1Z M33 36 h1 v1 h-1Z M34 36 h1 v1 h-1Z M35 36 h1 v1 h-1Z M36 36 h1 v1 h-1Z"/>
<path class="qr-2080 dark qrcode" fill="#000" fill-opacity="1" d="M12 10 h1 v1 h-1Z M14 10 h1 v1 h-1Z M16 10 h1 v1 h-1Z M18 10 h1 v1 h-1Z M20 10 h1 v1 h-1Z M22 10 h1 v1 h-1Z M24 10 h1 v1 h-1Z M26 10 h1 v1 h-1Z M28 10 h1 v1 h-1Z M30 10 h1 v1 h-1Z M32 10 h1 v1 h-1Z M10 12 h1 v1 h-1Z M10 14 h1 v1 h-1Z M10 16 h1 v1 h-1Z M10 18 h1 v1 h-1Z M10 20 h1 v1 h-1Z M10 22 h1 v1 h-1Z M10 24 h1 v1 h-1Z M10 26 h1 v1 h-1Z M10 28 h1 v1 h-1Z M10 30 h1 v1 h-1Z M10 32 h1 v1 h-1Z"/>
<path class="qr-2112 dark qrcode" fill="#000" fill-opacity="1" d="M12 4 h1 v1 h-1Z M12 11 h1 v1 h-1Z M4 12 h1 v1 h-1Z M5 12 h1 v1 h-1Z M7 12 h1 v1 h-1Z M8 12 h1 v1 h-1Z M34 12 h1 v1 h-1Z M40 12 h1 v1 h-1Z M12 36 h1 v1 h-1Z M12 37 h1 v1 h-1Z M12 39 h1 v1 h-1Z M12 40 h1 v1 h-1Z"/>
<path class="qr-3072 dark qrcode" fill="#000" fill-opacity="1" d="M6 6 h1 v1 h-1Z M7 6 h1 v1 h-1Z M8 6 h1 v1 h-1Z M36 6 h1 v1 h-1Z M37 6 h1 v1 h-1Z M38 6 h1 v1 h-1Z M6 7 h1 v1 h-1Z M7 7 h1 v1 h-1Z M8 7 h1 v1 h-1Z M36 7 h1 v1 h-1Z M37 7 h1 v1 h-1Z M38 7 h1 v1 h-1Z M6 8 h1 v1 h-1Z M7 8 h1 v1 h-1Z M8 8 h1 v1 h-1Z M36 8 h1 v1 h-1Z M37 8 h1 v1 h-1Z M38 8 h1 v1 h-1Z M6 36 h1 v1 h-1Z M7 36 h1 v1 h-1Z M8 36 h1 v1 h-1Z M6 37 h1 v1 h-1Z M7 37 h1 v1 h-1Z M8 37 h1 v1 h-1Z M6 38 h1 v1 h-1Z M7 38 h1 v1 h-1Z M8 38 h1 v1 h-1Z"/>
</svg>
