<?xml version="1.0" encoding="UTF-8"?>
<svg xmlns="http://www.w3.org/2000/svg" class="qr-svg qrcode" viewBox="0 0 45 45" preserveAspectRatio="xMidYMid">
<path class="qr-2049 dark qrcode" fill="#000" fill-opacity="1" d="M12 33 h1 v1 h-1Z"/>
<path class="qr-2050 dark qrcode" fill="#000" fill-opacity="1" d="M13 4 h1 v1 h-1Z M16 4 h1 v1 h-1Z M17 4 h1 v1 h-1Z M20 4 h1 v1 h-1Z M21 4 h1 v1 h-1Z M24 4 h1 v1 h-1Z M25 4 h1 v1 h-1Z M28 4 h1 v1 h-1Z M30 4 h1 v1 h-1Z M31 4 h1 v1 h-1Z M15 5 h1 v1 h-1Z M16 5 h1 v1 h-1Z M17 5 h1 v1 h-1Z M18 5 h1 v1 h-1Z M19 5 h1 v1 h-1Z M22 5 h1 v1 h-1Z M24 5 h1 v1 h-1Z M27 5 h1 v1 h-1Z M28 5 h1 v1 h-1Z M29 5 h1 v1 h-1Z M31 5 h1 v1 h-1Z M13 6 h1 v1 h-1Z M14 6 h1 v1 h-1Z M15 6 h1 v1 h-1Z M16 6 h1 v1 h-1Z M17 6 h1 v1 h-1Z M20 6 h1 v1 h-1Z M22 6 h1 v1 h-1Z M25 6 h1 v1 h-1Z M26 6 h1 v1 h-1Z M27 6 h1 v1 h-1Z M28 6 h1 v1 h-1Z M31 6 h1 v1 h-1Z M32 6 h1 v1 h-1Z M13 7 h1 v1 h-1Z M14 7 h1 v1 h-1Z M15 7 h1 v1 h-1Z M17 7 h1 v1 h-1Z M18 7 h1 v1 h-1Z M19 7 h1 v1 h-1Z M21 7 h1 v1 h-1Z M22 7 h1 v1 h-1Z M23 7 h1 v1 h-1Z M25 7 h1 v1 h-1Z M26 7 h1 v1 h-1Z M27 7 h1 v1 h-1Z M30 7 h1 v1 h-1Z M31 7 h1 v1 h-1Z M17 8 h1 v1 h-1Z M18 8 h1 v1 h-1Z M20 8 h1 v1 h-1Z M22 8 h1 v1 h-1Z M23 8 h1 v1 h-1Z M29 8 h1 v1 h-1Z M30 8 h1 v1 h-1Z M31 8 h1 v1 h-1Z M32 8 h1 v1 h-1Z M13 9 h1 v1 h-1Z M15 9 h1 v1 h-1Z M17 9 h1 v1 h-1Z M18 9 h1 v1 h-1Z M24 9 h1 v1 h-1Z M25 9 h1 v1 h-1Z M27 9 h1 v1 h-1Z M29 9 h1 v1 h-1Z M30 9 h1 v1 h-1Z M31 9 h1 v1 h-1Z M13 11 h1 v1 h-1Z M16 11 h1 v1 h-1Z M18 11 h1 v1 h-1Z M21 11 h1 v1 h-1Z M22 11 h1 v1 h-1Z M23 11 h1 v1 h-1Z M24 11 h1 v1 h-1Z M25 11 h1 v1 h-1Z M28 11 h1 v1 h-1Z M30 11 h1 v1 h-1Z M14 12 h1 v1 h-1Z M19 12 h1 v1 h-1Z M21 12 h1 v1 h-1Z M22 12 h1 v1 h-1Z M23 12 h1 v1 h-1Z M24 12 h1 v1 h-1Z M26 12 h1 v1 h-1Z M29 12 h1 v1 h-1Z M32 12 h1 v1 h-1Z M4 13 h1 v1 h-1Z M6 13 h1 v1 h-1Z M7 13 h1 v1 h-1Z M12 13 h1 v1 h-1Z M13 13 h1 v1 h-1Z M14 13 h1 v1 h-1Z M15 13 h1 v1 h-1Z M18 13 h1 v1 h-1Z M19 13 h1 v1 h-1Z M22 13 h1 v1 h-1Z M23 13 h1 v1 h-1Z M26 13 h1 v1 h-1Z M27 13 h1 v1 h-1Z M29 13 h1 v1 h-1Z
M30 13 h1 v1 h-1Z M32 13 h1 v1 h-1Z M34 13 h1 v1 h-1Z M35 13 h1 v1 h-1Z M37 13 h1 v1 h-1Z M40 13 h1 v1 h-1Z M5 14 h1 v1 h-1Z M7 14 h1 v1 h-1Z M8 14 h1 v1 h-1Z M20 14 h1 v1 h-1Z M21 14 h1 v1 h-1Z M23 14 h1 v1 h-1Z M25 14 h1 v1 h-1Z M26 14 h1 v1 h-1Z M29 14 h1 v1 h-1Z M30 14 h1 v1 h-1Z M34 14 h1 v1 h-1Z M36 14 h1 v1 h-1Z M37 14 h1 v1 h-1Z M40 14 h1 v1 h-1Z M6 15 h1 v1 h-1Z M9 15 h1 v1 h-1Z M12 15 h1 v1 h-1Z M13 15 h1 v1 h-1Z M14 15 h1 v1 h-1Z M18 15 h1 v1 h-1Z M19 15 h1 v1 h-1Z M21 15 h1 v1 h-1Z M23 15 h1 v1 h-1Z M24 15 h1 v1 h-1Z M29 15 h1 v1 h-1Z M31 15 h1 v1 h-1Z M32 15 h1 v1 h-1Z M33 15 h1 v1 h-1Z M34 15 h1 v1 h-1Z M35 15 h1 v1 h-1Z M39 15 h1 v1 h-1Z M40 15 h1 v1 h-1Z M4 16 h1 v1 h-1Z M11 16 h1 v1 h-1Z M13 16 h1 v1 h-1Z M16 16 h1 v1 h-1Z M20 16 h1 v1 h-1Z M24 16 h1 v1 h-1Z M28 16 h1 v1 h-1Z M29 16 h1 v1 h-1Z M30 16 h1 v1 h-1Z M32 16 h1 v1 h-1Z M34 16 h1 v1 h-1Z M35 16 h1 v1 h-1Z M40 16 h1 v1 h-1Z M4 17 h1 v1 h-1Z M5 17 h1 v1 h-1Z M6 17 h1 v1 h-1Z M7 17 h1 v1 h-1Z M8 17 h1 v1 h-1Z M9 17 h1 v1 h-1Z M11 17 h1 v1 h-1Z M12 17 h1 v1 h-1Z M13 17 h1 v1 h-1Z M14 17 h1 v1 h-1Z M15 17 h1 v1 h-1Z M16 17 h1 v1 h-1Z M19 17 h1 v1 h-1Z M21 17 h1 v1 h-1Z M24 17 h1 v1 h-1Z M25 17 h1 v1 h-1Z M26 17 h1 v1 h-1Z M27 17 h1 v1 h-1Z M28 17 h1 v1 h-1Z M29 17 h1 v1 h-1Z M30 17 h1 v1 h-1Z M34 17 h1 v1 h-1Z M38 17 h1 v1 h-1Z M39 17 h1 v1 h-1Z M40 17 h1 v1 h-1Z M4 18 h1 v1 h-1Z M6 18 h1 v1 h-1Z M9 18 h1 v1 h-1Z M11 18 h1 v1 h-1Z M13 18 h1 v1 h-1Z M16 18 h1 v1 h-1Z M19 18 h1 v1 h-1Z M20 18 h1 v1 h-1Z M21 18 h1 v1 h-1Z M22 18 h1 v1 h-1Z M23 18 h1 v1 h-1Z M26 18 h1 v1 h-1Z M28 18 h1 v1 h-1Z M33 18 h1 v1 h-1Z M34 18 h1 v1 h-1Z M40 18 h1 v1 h-1Z M5 19 h1 v1 h-1Z M11 19 h1 v1 h-1Z M14 19 h1 v1 h-1Z M16 19 h1 v1 h-1Z M17 19 h1 v1 h-1Z M18 19 h1 v1 h-1Z M20 19 h1 v1 h-1Z M21 19 h1 v1 h-1Z
M22 19 h1 v1 h-1Z M24 19 h1 v1 h-1Z M25 19 h1 v1 h-1Z M26 19 h1 v1 h-1Z M28 19 h1 v1 h-1Z M29 19 h1 v1 h-1Z M32 19 h1 v1 h-1Z M37 19 h1 v1 h-1Z M39 19 h1 v1 h-1Z M5 20 h1 v1 h-1Z M9 20 h1 v1 h-1Z M12 20 h1 v1 h-1Z M13 20 h1 v1 h-1Z M15 20 h1 v1 h-1Z M17 20 h1 v1 h-1Z M18 20 h1 v1 h-1Z M19 20 h1 v1 h-1Z M20 20 h1 v1 h-1Z M22 20 h1 v1 h-1Z M27 20 h1 v1 h-1Z M32 20 h1 v1 h-1Z M33 20 h1 v1 h-1Z M34 20 h1 v1 h-1Z M37 20 h1 v1 h-1Z M38 20 h1 v1 h-1Z M39 20 h1 v1 h-1Z M40 20 h1 v1 h-1Z M4 21 h1 v1 h-1Z M5 21 h1 v1 h-1Z M9 21 h1 v1 h-1Z M12 21 h1 v1 h-1Z M13 21 h1 v1 h-1Z M19 21 h1 v1 h-1Z M21 21 h1 v1 h-1Z M22 21 h1 v1 h-1Z M23 21 h1 v1 h-1Z M24 21 h1 v1 h-1Z M26 21 h1 v1 h-1Z M29 21 h1 v1 h-1Z M30 21 h1 v1 h-1Z M34 21 h1 v1 h-1Z M35 21 h1 v1 h-1Z M36 21 h1 v1 h-1Z M37 21 h1 v1 h-1Z M39 21 h1 v1 h-1Z M40 21 h1 v1 h-1Z M6 22 h1 v1 h-1Z M8 22 h1 v1 h-1Z M11 22 h1 v1 h-1Z M13 22 h1 v1 h-1Z M14 22 h1 v1 h-1Z M17 22 h1 v1 h-1Z M21 22 h1 v1 h-1Z M25 22 h1 v1 h-1Z M32 22 h1 v1 h-1Z M33 22 h1 v1 h-1Z M34 22 h1 v1 h-1Z M35 22 h1 v1 h-1Z M36 22 h1 v1 h-1Z M37 22 h1 v1 h-1Z M38 22 h1 v1 h-1Z M40 22 h1 v1 h-1Z M4 23 h1 v1 h-1Z M6 23 h1 v1 h-1Z M8 23 h1 v1 h-1Z M9 23 h1 v1 h-1Z M15 23 h1 v1 h-1Z M17 23 h1 v1 h-1Z M19 23 h1 v1 h-1Z M20 23 h1 v1 h-1Z M26 23 h1 v1 h-1Z M27 23 h1 v1 h-1Z M30 23 h1 v1 h-1Z M33 23 h1 v1 h-1Z M36 23 h1 v1 h-1Z M37 23 h1 v1 h-1Z M38 23 h1 v1 h-1Z M39 23 h1 v1 h-1Z M4 24 h1 v1 h-1Z M9 24 h1 v1 h-1Z M12 24 h1 v1 h-1Z M13 24 h1 v1 h-1Z M15 24 h1 v1 h-1Z M16 24 h1 v1 h-1Z M18 24 h1 v1 h-1Z M20 24 h1 v1 h-1Z M21 24 h1 v1 h-1Z M27 24 h1 v1 h-1Z M28 24 h1 v1 h-1Z M29 24 h1 v1 h-1Z M33 24 h1 v1 h-1Z M34 24 h1 v1 h-1Z M35 24 h1 v1 h-1Z M36 24 h1 v1 h-1Z M37 24 h1 v1 h-1Z M39 24 h1 v1 h-1Z M40 24 h1 v1 h-1Z M8 25 h1 v1 h-1Z M11 25 h1 v1 h-1Z M14 25 h1 v1 h-1Z
M15 25 h1 v1 h-1Z M16 25 h1 v1 h-1Z M17 25 h1 v1 h-1Z M19 25 h1 v1 h-1Z M20 25 h1 v1 h-1Z M21 25 h1 v1 h-1Z M23 25 h1 v1 h-1Z M24 25 h1 v1 h-1Z M25 25 h1 v1 h-1Z M27 25 h1 v1 h-1Z M28 25 h1 v1 h-1Z M29 25 h1 v1 h-1Z M30 25 h1 v1 h-1Z M34 25 h1 v1 h-1Z M35 25 h1 v1 h-1Z M40 25 h1 v1 h-1Z M6 26 h1 v1 h-1Z M7 26 h1 v1 h-1Z M9 26 h1 v1 h-1Z M15 26 h1 v1 h-1Z M16 26 h1 v1 h-1Z M17 26 h1 v1 h-1Z M18 26 h1 v1 h-1Z M19 26 h1 v1 h-1Z M22 26 h1 v1 h-1Z M24 26 h1 v1 h-1Z M27 26 h1 v1 h-1Z M28 26 h1 v1 h-1Z M29 26 h1 v1 h-1Z M32 26 h1 v1 h-1Z M33 26 h1 v1 h-1Z M34 26 h1 v1 h-1Z M36 26 h1 v1 h-1Z M37 26 h1 v1 h-1Z M40 26 h1 v1 h-1Z M4 27 h1 v1 h-1Z M13 27 h1 v1 h-1Z M15 27 h1 v1 h-1Z M16 27 h1 v1 h-1Z M17 27 h1 v1 h-1Z M20 27 h1 v1 h-1Z M22 27 h1 v1 h-1Z M25 27 h1 v1 h-1Z M26 27 h1 v1 h-1Z M27 27 h1 v1 h-1Z M28 27 h1 v1 h-1Z M29 27 h1 v1 h-1Z M30 27 h1 v1 h-1Z M31 27 h1 v1 h-1Z M33 27 h1 v1 h-1Z M35 27 h1 v1 h-1Z M36 27 h1 v1 h-1Z M37 27 h1 v1 h-1Z M5 28 h1 v1 h-1Z M7 28 h1 v1 h-1Z M8 28 h1 v1 h-1Z M9 28 h1 v1 h-1Z M11 28 h1 v1 h-1Z M12 28 h1 v1 h-1Z M14 28 h1 v1 h-1Z M15 28 h1 v1 h-1Z M18 28 h1 v1 h-1Z M19 28 h1 v1 h-1Z M22 28 h1 v1 h-1Z M23 28 h1 v1 h-1Z M26 28 h1 v1 h-1Z M27 28 h1 v1 h-1Z M29 28 h1 v1 h-1Z M34 28 h1 v1 h-1Z M35 28 h1 v1 h-1Z M37 28 h1 v1 h-1Z M39 28 h1 v1 h-1Z M40 28 h1 v1 h-1Z M5 29 h1 v1 h-1Z M6 29 h1 v1 h-1Z M8 29 h1 v1 h-1Z M15 29 h1 v1 h-1Z M17 29 h1 v1 h-1Z M18 29 h1 v1 h-1Z M19 29 h1 v1 h-1Z M20 29 h1 v1 h-1Z M22 29 h1 v1 h-1Z M27 29 h1 v1 h-1Z M32 29 h1 v1 h-1Z M34 29 h1 v1 h-1Z M37 29 h1 v1 h-1Z M39 29 h1 v1 h-1Z M40 29 h1 v1 h-1Z M4 30 h1 v1 h-1Z M9 30 h1 v1 h-1Z M11 30 h1 v1 h-1Z M13 30 h1 v1 h-1Z M14 30 h1 v1 h-1Z M15 30 h1 v1 h-1Z M17 30 h1 v1 h-1Z M18 30 h1 v1 h-1Z M24 30 h1 v1 h-1Z M25 30 h1 v1 h-1Z M27 30 h1 v1 h-1Z M29 30 h1 v1 h-1Z
M33 30 h1 v1 h-1Z M34 30 h1 v1 h-1Z M37 30 h1 v1 h-1Z M38 30 h1 v1 h-1Z M40 30 h1 v1 h-1Z M5 31 h1 v1 h-1Z M7 31 h1 v1 h-1Z M8 31 h1 v1 h-1Z M11 31 h1 v1 h-1Z M12 31 h1 v1 h-1Z M13 31 h1 v1 h-1Z M14 31 h1 v1 h-1Z M15 31 h1 v1 h-1Z M19 31 h1 v1 h-1Z M23 31 h1 v1 h-1Z M27 31 h1 v1 h-1Z M29 31 h1 v1 h-1Z M30 31 h1 v1 h-1Z M31 31 h1 v1 h-1Z M33 31 h1 v1 h-1Z M34 31 h1 v1 h-1Z M37 31 h1 v1 h-1Z M39 31 h1 v1 h-1Z M40 31 h1 v1 h-1Z M4 32 h1 v1 h-1Z M5 32 h1 v1 h-1Z M6 32 h1 v1 h-1Z M8 32 h1 v1 h-1Z M9 32 h1 v1 h-1Z M14 32 h1 v1 h-1Z M16 32 h1 v1 h-1Z M17 32 h1 v1 h-1Z M23 32 h1 v1 h-1Z M24 32 h1 v1 h-1Z M26 32 h1 v1 h-1Z M28 32 h1 v1 h-1Z M30 32 h1 v1 h-1Z M31 32 h1 v1 h-1Z M37 32 h1 v1 h-1Z M38 32 h1 v1 h-1Z M40 32 h1 v1 h-1Z M13 33 h1 v1 h-1Z M14 33 h1 v1 h-1Z M16 33 h1 v1 h-1Z M17 33 h1 v1 h-1Z M18 33 h1 v1 h-1Z M19 33 h1 v1 h-1Z M20 33 h1 v1 h-1Z M23 33 h1 v1 h-1Z M25 33 h1 v1 h-1Z M28 33 h1 v1 h-1Z M29 33 h1 v1 h-1Z M37 33 h1 v1 h-1Z M39 33 h1 v1 h-1Z M40 33 h1 v1 h-1Z M13 34 h1 v1 h-1Z M14 34 h1 v1 h-1Z M15 34 h1 v1 h-1Z M16 34 h1 v1 h-1Z M18 34 h1 v1 h-1Z M19 34 h1 v1 h-1Z M20 34 h1 v1 h-1Z M22 34 h1 v1 h-1Z M23 34 h1 v1 h-1Z M24 34 h1 v1 h-1Z M26 34 h1 v1 h-1Z M27 34 h1 v1 h-1Z M28 34 h1 v1 h-1Z M29 34 h1 v1 h-1Z M31 34 h1 v1 h-1Z M37 34 h1 v1 h-1Z M40 34 h1 v1 h-1Z M13 35 h1 v1 h-1Z M14 35 h1 v1 h-1Z M16 35 h1 v1 h-1Z M18 35 h1 v1 h-1Z M21 35 h1 v1 h-1Z M22 35 h1 v1 h-1Z M23 35 h1 v1 h-1Z M24 35 h1 v1 h-1Z M25 35 h1 v1 h-1Z M28 35 h1 v1 h-1Z M30 35 h1 v1 h-1Z M31 35 h1 v1 h-1Z M38 35 h1 v1 h-1Z M39 35 h1 v1 h-1Z M13 36 h1 v1 h-1Z M19 36 h1 v1 h-1Z M21 36 h1 v1 h-1Z M22 36 h1 v1 h-1Z M23 36 h1 v1 h-1Z M24 36 h1 v1 h-1Z M26 36 h1 v1 h-1Z M39 36 h1 v1 h-1Z M13 37 h1 v1 h-1Z M15 37 h1 v1 h-1Z M18 37 h1 v1 h-1Z M19 37 h1 v1 h-1Z M22 37 h1 v1 h-1Z M23 37 h1 v1 h-1Z
M26 37 h1 v1 h-1Z M27 37 h1 v1 h-1Z M31 37 h1 v1 h-1Z M33 37 h1 v1 h-1Z M36 37 h1 v1 h-1Z M39 37 h1 v1 h-1Z M40 37 h1 v1 h-1Z M13 38 h1 v1 h-1Z M14 38 h1 v1 h-1Z M20 38 h1 v1 h-1Z M21 38 h1 v1 h-1Z M23 38 h1 v1 h-1Z M25 38 h1 v1 h-1Z M26 38 h1 v1 h-1Z M31 38 h1 v1 h-1Z M33 38 h1 v1 h-1Z M35 38 h1 v1 h-1Z M36 38 h1 v1 h-1Z M37 38 h1 v1 h-1Z M40 38 h1 v1 h-1Z M14 39 h1 v1 h-1Z M18 39 h1 v1 h-1Z M19 39 h1 v1 h-1Z M21 39 h1 v1 h-1Z M23 39 h1 v1 h-1Z M24 39 h1 v1 h-1Z M30 39 h1 v1 h-1Z M31 39 h1 v1 h-1Z M32 39 h1 v1 h-1Z M33 39 h1 v1 h-1Z M35 39 h1 v1 h-1Z M13 40 h1 v1 h-1Z M14 40 h1 v1 h-1Z M16 40 h1 v1 h-1Z M20 40 h1 v1 h-1Z M24 40 h1 v1 h-1Z M28 40 h1 v1 h-1Z M31 40 h1 v1 h-1Z M32 40 h1 v1 h-1Z M34 40 h1 v1 h-1Z M36 40 h1 v1 h-1Z M39 40 h1 v1 h-1Z M40 40 h1 v1 h-1Z"/>
<path class="qr-2052 dark qrcode" fill="#000" fill-opacity="1" d="M4 4 h1 v1 h-1Z M5 4 h1 v1 h-1Z M6 4 h1 v1 h-1Z M7 4 h1 v1 h-1Z M8 4 h1 v1 h-1Z M9 4 h1 v1 h-1Z M10 4 h1 v1 h-1Z M34 4 h1 v1 h-1Z M35 4 h1 v1 h-1Z M36 4 h1 v1 h-1Z M37 4 h1 v1 h-1Z M38 4 h1 v1 h-1Z M39 4 h1 v1 h-1Z M40 4 h1 v1 h-1Z M4 5 h1 v1 h-1Z M10 5 h1 v1 h-1Z M34 5 h1 v1 h-1Z M40 5 h1 v1 h-1Z M4 6 h1 v1 h-1Z M10 6 h1 v1 h-1Z M34 6 h1 v1 h-1Z M40 6 h1 v1 h-1Z M4 7 h1 v1 h-1Z M10 7 h1 v1 h-1Z M34 7 h1 v1 h-1Z M40 7 h1 v1 h-1Z M4 8 h1 v1 h-1Z M10 8 h1 v1 h-1Z M34 8 h1 v1 h-1Z M40 8 h1 v1 h-1Z M4 9 h1 v1 h-1Z M10 9 h1 v1 h-1Z M34 9 h1 v1 h-1Z M40 9 h1 v1 h-1Z M4 10 h1 v1 h-1Z M5 10 h1 v1 h-1Z M6 10 h1 v1 h-1Z M7 10 h1 v1 h-1Z M8 10 h1 v1 h-1Z M9 10 h1 v1 h-1Z M10 10 h1 v1 h-1Z M34 10 h1 v1 h-1Z M35 10 h1 v1 h-1Z M36 10 h1 v1 h-1Z M37 10 h1 v1 h-1Z M38 10 h1 v1 h-1Z M39 10 h1 v1 h-1Z M40 10 h1 v1 h-1Z M4 34 h1 v1 h-1Z M5 34 h1 v1 h-1Z M6 34 h1 v1 h-1Z M7 34 h1 v1 h-1Z M8 34 h1 v1 h-1Z M9 34 h1 v1 h-1Z M10 34 h1 v1 h-1Z M4 35 h1 v1 h-1Z M10 35 h1 v1 h-1Z M4 36 h1 v1 h-1Z M10 36 h1 v1 h-1Z M4 37 h1 v1 h-1Z M10 37 h1 v1 h-1Z M4 38 h1 v1 h-1Z M10 38 h1 v1 h-1Z M4 39 h1 v1 h-1Z M10 39 h1 v1 h-1Z M4 40 h1 v1 h-1Z M5 40 h1 v1 h-1Z M6 40 h1 v1 h-1Z M7 40 h1 v1 h-1Z M8 40 h1 v1 h-1Z M9 40 h1 v1 h-1Z M10 40 h1 v1 h-1Z"/>
<path class="qr-2064 dark qrcode" fill="#000" fill-opacity="1" d="M32 32 h1 v1 h-1Z M33 32 h1 v1 h-1Z M34 32 h1 v1 h-1Z M35 32 h1 v1 h-1Z M36 32 h1 v1 h-1Z M32 33 h1 v1 h-1Z M36 33 h1 v1 h-1Z M32 34 h1 v1 h-1Z M34 34 h1 v1 h-1Z M36 34 h1 v1 h-1Z M32 35 h1 v1 h-1Z M36 35 h1 v1 h-1Z M32 36 h1 v1 h-1Z M33 36 h1 v1 h-1Z M34 36 h1 v1 h-1Z M35 36 h1 v1 h-1Z M36 36 h1 v1 h-1Z"/>
<path class="qr-2080 dark qrcode" fill="#000" fill-opacity="1" d="M12 10 h1 v1 h-1Z M14 10 h1 v1 h-1Z M16 10 h1 v1 h-1Z M18 10 h1 v1 h-1Z M20 10 h1 v1 h-1Z M22 10 h1 v1 h-1Z M24 10 h1 v1 h-1Z M26 10 h1 v1 h-1Z M28 10 h1 v1 h-1Z M30 10 h1 v1 h-1Z M32 10 h1 v1 h-1Z M10 12 h1 v1 h-1Z M10 14 h1 v1 h-1Z M10 16 h1 v1 h-1Z M10 18 h1 v1 h-1Z M10 20 h1 v1 h-1Z M10 22 h1 v1 h-1Z M10 24 h1 v1 h-1Z M10 26 h1 v1 h-1Z M10 28 h1 v1 h-1Z M10 30 h1 v1 h-1Z M10 32 h1 v1 h-1Z"/>
<path class="qr-2112 dark qrcode" fill="#000" fill-opacity="1" d="M12 5 h1 v1 h-1Z M12 6 h1 v1 h-1Z M12 8 h1 v1 h-1Z M12 9 h1 v1 h-1Z M12 11 h1 v1 h-1Z M4 12 h1 v1 h-1Z M5 12 h1 v1 h-1Z M7 12 h1 v1 h-1Z M11 12 h1 v1 h-1Z M34 12 h1 v1 h-1Z M35 12 h1 v1 h-1Z M36 12 h1 v1 h-1Z M38 12 h1 v1 h-1Z M39 12 h1 v1 h-1Z M12 34 h1 v1 h-1Z M12 37 h1 v1 h-1Z M12 39 h1 v1 h-1Z M12 40 h1 v1 h-1Z"/>
<path class="qr-3072 dark qrcode" fill="#000" fill-opacity="1" d="M6 6 h1 v1 h-1Z M7 6 h1 v1 h-1Z M8 6 h1 v1 h-1Z M36 6 h1 v1 h-1Z M37 6 h1 v1 h-1Z M38 6 h1 v1 h-1Z M6 7 h1 v1 h-1Z M7 7 h1 v1 h-1Z M8 7 h1 v1 h-1Z M36 7 h1 v1 h-1Z M37 7 h1 v1 h-1Z M38 7 h1 v1 h-1Z M6 8 h1 v1 h-1Z M7 8 h1 v1 h-1Z M8 8 h1 v1 h-1Z M36 8 h1 v1 h-1Z M37 8 h1 v1 h-1Z M38 8 h1 v1 h-1Z M6 36 h1 v1 h-1Z M7 36 h1 v1 h-1Z M8 36 h1 v1 h-1Z M6 37 h1 v1 h-1Z M7 37 h1 v1 h-1Z M8 37 h1 v1 h-1Z M6 38 h1 v1 h-1Z M7 38 h1 v1 h-1Z M8 38 h1 v1 h-1Z"/>
</svg>
