<?xml version="1.0" encoding="UTF-8"?>
<svg xmlns="http://www.w3.org/2000/svg" class="qr-svg qrcode" viewBox="0 0 45 45" preserveAspectRatio="xMidYMid">
<path class="qr-2049 dark qrcode" fill="#000" fill-opacity="1" d="M12 33 h1 v1 h-1Z"/>
<path class="qr-2050 dark qrcode" fill="#000" fill-opacity="1" d="M14 4 h1 v1 h-1Z M16 4 h1 v1 h-1Z M17 4 h1 v1 h-1Z M18 4 h1 v1 h-1Z M19 4 h1 v1 h-1Z M21 4 h1 v1 h-1Z M26 4 h1 v1 h-1Z M28 4 h1 v1 h-1Z M32 4 h1 v1 h-1Z M14 5 h1 v1 h-1Z M17 5 h1 v1 h-1Z M18 5 h1 v1 h-1Z M19 5 h1 v1 h-1Z M20 5 h1 v1 h-1Z M21 5 h1 v1 h-1Z M24 5 h1 v1 h-1Z M26 5 h1 v1 h-1Z M29 5 h1 v1 h-1Z M31 5 h1 v1 h-1Z M32 5 h1 v1 h-1Z M16 6 h1 v1 h-1Z M17 6 h1 v1 h-1Z M19 6 h1 v1 h-1Z M21 6 h1 v1 h-1Z M22 6 h1 v1 h-1Z M28 6 h1 v1 h-1Z M31 6 h1 v1 h-1Z M13 7 h1 v1 h-1Z M14 7 h1 v1 h-1Z M16 7 h1 v1 h-1Z M18 7 h1 v1 h-1Z M19 7 h1 v1 h-1Z M25 7 h1 v1 h-1Z M26 7 h1 v1 h-1Z M28 7 h1 v1 h-1Z M29 7 h1 v1 h-1Z M32 7 h1 v1 h-1Z M13 8 h1 v1 h-1Z M19 8 h1 v1 h-1Z M20 8 h1 v1 h-1Z M22 8 h1 v1 h-1Z M24 8 h1 v1 h-1Z M25 8 h1 v1 h-1Z M30 8 h1 v1 h-1Z M13 9 h1 v1 h-1Z M15 9 h1 v1 h-1Z M16 9 h1 v1 h-1Z M22 9 h1 v1 h-1Z M23 9 h1 v1 h-1Z M25 9 h1 v1 h-1Z M27 9 h1 v1 h-1Z M28 9 h1 v1 h-1Z M29 9 h1 v1 h-1Z M30 9 h1 v1 h-1Z M31 9 h1 v1 h-1Z M13 11 h1 v1 h-1Z M14 11 h1 v1 h-1Z M15 11 h1 v1 h-1Z M18 11 h1 v1 h-1Z M20 11 h1 v1 h-1Z M23 11 h1 v1 h-1Z M24 11 h1 v1 h-1Z M25 11 h1 v1 h-1Z M26 11 h1 v1 h-1Z M27 11 h1 v1 h-1Z M31 11 h1 v1 h-1Z M13 12 h1 v1 h-1Z M15 12 h1 v1 h-1Z M20 12 h1 v1 h-1Z M22 12 h1 v1 h-1Z M23 12 h1 v1 h-1Z M24 12 h1 v1 h-1Z M25 12 h1 v1 h-1Z M27 12 h1 v1 h-1Z M29 12 h1 v1 h-1Z M30 12 h1 v1 h-1Z M31 12 h1 v1 h-1Z M32 12 h1 v1 h-1Z M6 13 h1 v1 h-1Z M7 13 h1 v1 h-1Z M11 13 h1 v1 h-1Z M13 13 h1 v1 h-1Z M14 13 h1 v1 h-1Z M16 13 h1 v1 h-1Z M17 13 h1 v1 h-1Z M18 13 h1 v1 h-1Z M19 13 h1 v1 h-1Z M21 13 h1 v1 h-1Z M26 13 h1 v1 h-1Z M28 13 h1 v1 h-1Z M33 13 h1 v1 h-1Z M37 13 h1 v1 h-1Z M8 14 h1 v1 h-1Z M11 14 h1 v1 h-1Z M13 14 h1 v1 h-1Z M14 14 h1 v1 h-1Z M17 14 h1 v1 h-1Z M18 14 h1 v1 h-1Z M19 14 h1 v1 h-1Z M20 14 h1 v1 h-1Z
M21 14 h1 v1 h-1Z M24 14 h1 v1 h-1Z M26 14 h1 v1 h-1Z M30 14 h1 v1 h-1Z M31 14 h1 v1 h-1Z M38 14 h1 v1 h-1Z M39 14 h1 v1 h-1Z M40 14 h1 v1 h-1Z M4 15 h1 v1 h-1Z M5 15 h1 v1 h-1Z M6 15 h1 v1 h-1Z M7 15 h1 v1 h-1Z M13 15 h1 v1 h-1Z M16 15 h1 v1 h-1Z M17 15 h1 v1 h-1Z M19 15 h1 v1 h-1Z M21 15 h1 v1 h-1Z M22 15 h1 v1 h-1Z M28 15 h1 v1 h-1Z M30 15 h1 v1 h-1Z M33 15 h1 v1 h-1Z M34 15 h1 v1 h-1Z M35 15 h1 v1 h-1Z M37 15 h1 v1 h-1Z M8 16 h1 v1 h-1Z M12 16 h1 v1 h-1Z M16 16 h1 v1 h-1Z M18 16 h1 v1 h-1Z M19 16 h1 v1 h-1Z M25 16 h1 v1 h-1Z M26 16 h1 v1 h-1Z M28 16 h1 v1 h-1Z M29 16 h1 v1 h-1Z M30 16 h1 v1 h-1Z M31 16 h1 v1 h-1Z M32 16 h1 v1 h-1Z M34 16 h1 v1 h-1Z M35 16 h1 v1 h-1Z M36 16 h1 v1 h-1Z M38 16 h1 v1 h-1Z M40 16 h1 v1 h-1Z M6 17 h1 v1 h-1Z M8 17 h1 v1 h-1Z M13 17 h1 v1 h-1Z M19 17 h1 v1 h-1Z M20 17 h1 v1 h-1Z M22 17 h1 v1 h-1Z M24 17 h1 v1 h-1Z M25 17 h1 v1 h-1Z M33 17 h1 v1 h-1Z M5 18 h1 v1 h-1Z M7 18 h1 v1 h-1Z M9 18 h1 v1 h-1Z M12 18 h1 v1 h-1Z M15 18 h1 v1 h-1Z M16 18 h1 v1 h-1Z M22 18 h1 v1 h-1Z M23 18 h1 v1 h-1Z M25 18 h1 v1 h-1Z M27 18 h1 v1 h-1Z M28 18 h1 v1 h-1Z M29 18 h1 v1 h-1Z M31 18 h1 v1 h-1Z M33 18 h1 v1 h-1Z M34 18 h1 v1 h-1Z M35 18 h1 v1 h-1Z M37 18 h1 v1 h-1Z M39 18 h1 v1 h-1Z M40 18 h1 v1 h-1Z M7 19 h1 v1 h-1Z M9 19 h1 v1 h-1Z M12 19 h1 v1 h-1Z M13 19 h1 v1 h-1Z M15 19 h1 v1 h-1Z M18 19 h1 v1 h-1Z M20 19 h1 v1 h-1Z M23 19 h1 v1 h-1Z M24 19 h1 v1 h-1Z M25 19 h1 v1 h-1Z M26 19 h1 v1 h-1Z M27 19 h1 v1 h-1Z M30 19 h1 v1 h-1Z M31 19 h1 v1 h-1Z M33 19 h1 v1 h-1Z M34 19 h1 v1 h-1Z M35 19 h1 v1 h-1Z M37 19 h1 v1 h-1Z M39 19 h1 v1 h-1Z M5 20 h1 v1 h-1Z M6 20 h1 v1 h-1Z M8 20 h1 v1 h-1Z M12 20 h1 v1 h-1Z M15 20 h1 v1 h-1Z M20 20 h1 v1 h-1Z M22 20 h1 v1 h-1Z M23 20 h1 v1 h-1Z M24 20 h1 v1 h-1Z M25 20 h1 v1 h-1Z M27 20 h1 v1 h-1Z M29 20 h1 v1 h-1Z
M31 20 h1 v1 h-1Z M32 20 h1 v1 h-1Z M34 20 h1 v1 h-1Z M35 20 h1 v1 h-1Z M36 20 h1 v1 h-1Z M38 20 h1 v1 h-1Z M40 20 h1 v1 h-1Z M4 21 h1 v1 h-1Z M6 21 h1 v1 h-1Z M7 21 h1 v1 h-1Z M8 21 h1 v1 h-1Z M9 21 h1 v1 h-1Z M12 21 h1 v1 h-1Z M14 21 h1 v1 h-1Z M16 21 h1 v1 h-1Z M17 21 h1 v1 h-1Z M18 21 h1 v1 h-1Z M19 21 h1 v1 h-1Z M21 21 h1 v1 h-1Z M26 21 h1 v1 h-1Z M28 21 h1 v1 h-1Z M29 21 h1 v1 h-1Z M30 21 h1 v1 h-1Z M33 21 h1 v1 h-1Z M39 21 h1 v1 h-1Z M4 22 h1 v1 h-1Z M8 22 h1 v1 h-1Z M12 22 h1 v1 h-1Z M14 22 h1 v1 h-1Z M17 22 h1 v1 h-1Z M18 22 h1 v1 h-1Z M19 22 h1 v1 h-1Z M20 22 h1 v1 h-1Z M21 22 h1 v1 h-1Z M24 22 h1 v1 h-1Z M26 22 h1 v1 h-1Z M31 22 h1 v1 h-1Z M37 22 h1 v1 h-1Z M40 22 h1 v1 h-1Z M6 23 h1 v1 h-1Z M7 23 h1 v1 h-1Z M8 23 h1 v1 h-1Z M9 23 h1 v1 h-1Z M12 23 h1 v1 h-1Z M16 23 h1 v1 h-1Z M17 23 h1 v1 h-1Z M19 23 h1 v1 h-1Z M21 23 h1 v1 h-1Z M22 23 h1 v1 h-1Z M28 23 h1 v1 h-1Z M30 23 h1 v1 h-1Z M31 23 h1 v1 h-1Z M34 23 h1 v1 h-1Z M39 23 h1 v1 h-1Z M4 24 h1 v1 h-1Z M6 24 h1 v1 h-1Z M8 24 h1 v1 h-1Z M9 24 h1 v1 h-1Z M11 24 h1 v1 h-1Z M13 24 h1 v1 h-1Z M14 24 h1 v1 h-1Z M16 24 h1 v1 h-1Z M18 24 h1 v1 h-1Z M19 24 h1 v1 h-1Z M25 24 h1 v1 h-1Z M26 24 h1 v1 h-1Z M28 24 h1 v1 h-1Z M29 24 h1 v1 h-1Z M32 24 h1 v1 h-1Z M33 24 h1 v1 h-1Z M34 24 h1 v1 h-1Z M35 24 h1 v1 h-1Z M36 24 h1 v1 h-1Z M37 24 h1 v1 h-1Z M38 24 h1 v1 h-1Z M39 24 h1 v1 h-1Z M40 24 h1 v1 h-1Z M4 25 h1 v1 h-1Z M6 25 h1 v1 h-1Z M8 25 h1 v1 h-1Z M9 25 h1 v1 h-1Z M19 25 h1 v1 h-1Z M20 25 h1 v1 h-1Z M22 25 h1 v1 h-1Z M24 25 h1 v1 h-1Z M25 25 h1 v1 h-1Z M29 25 h1 v1 h-1Z M30 25 h1 v1 h-1Z M39 25 h1 v1 h-1Z M4 26 h1 v1 h-1Z M5 26 h1 v1 h-1Z M6 26 h1 v1 h-1Z M8 26 h1 v1 h-1Z M9 26 h1 v1 h-1Z M12 26 h1 v1 h-1Z M13 26 h1 v1 h-1Z M14 26 h1 v1 h-1Z M15 26 h1 v1 h-1Z M16 26 h1 v1 h-1Z M22 26 h1 v1 h-1Z
M23 26 h1 v1 h-1Z M25 26 h1 v1 h-1Z M27 26 h1 v1 h-1Z M28 26 h1 v1 h-1Z M31 26 h1 v1 h-1Z M33 26 h1 v1 h-1Z M34 26 h1 v1 h-1Z M37 26 h1 v1 h-1Z M38 26 h1 v1 h-1Z M40 26 h1 v1 h-1Z M4 27 h1 v1 h-1Z M5 27 h1 v1 h-1Z M7 27 h1 v1 h-1Z M8 27 h1 v1 h-1Z M15 27 h1 v1 h-1Z M18 27 h1 v1 h-1Z M20 27 h1 v1 h-1Z M23 27 h1 v1 h-1Z M24 27 h1 v1 h-1Z M25 27 h1 v1 h-1Z M26 27 h1 v1 h-1Z M27 27 h1 v1 h-1Z M30 27 h1 v1 h-1Z M31 27 h1 v1 h-1Z M33 27 h1 v1 h-1Z M34 27 h1 v1 h-1Z M36 27 h1 v1 h-1Z M37 27 h1 v1 h-1Z M39 27 h1 v1 h-1Z M40 27 h1 v1 h-1Z M6 28 h1 v1 h-1Z M11 28 h1 v1 h-1Z M15 28 h1 v1 h-1Z M20 28 h1 v1 h-1Z M22 28 h1 v1 h-1Z M23 28 h1 v1 h-1Z M24 28 h1 v1 h-1Z M25 28 h1 v1 h-1Z M27 28 h1 v1 h-1Z M29 28 h1 v1 h-1Z M32 28 h1 v1 h-1Z M34 28 h1 v1 h-1Z M35 28 h1 v1 h-1Z M36 28 h1 v1 h-1Z M38 28 h1 v1 h-1Z M4 29 h1 v1 h-1Z M5 29 h1 v1 h-1Z M8 29 h1 v1 h-1Z M11 29 h1 v1 h-1Z M13 29 h1 v1 h-1Z M14 29 h1 v1 h-1Z M16 29 h1 v1 h-1Z M17 29 h1 v1 h-1Z M18 29 h1 v1 h-1Z M19 29 h1 v1 h-1Z M21 29 h1 v1 h-1Z M26 29 h1 v1 h-1Z M28 29 h1 v1 h-1Z M30 29 h1 v1 h-1Z M33 29 h1 v1 h-1Z M37 29 h1 v1 h-1Z M38 29 h1 v1 h-1Z M39 29 h1 v1 h-1Z M4 30 h1 v1 h-1Z M6 30 h1 v1 h-1Z M8 30 h1 v1 h-1Z M9 30 h1 v1 h-1Z M11 30 h1 v1 h-1Z M12 30 h1 v1 h-1Z M13 30 h1 v1 h-1Z M17 30 h1 v1 h-1Z M18 30 h1 v1 h-1Z M19 30 h1 v1 h-1Z M20 30 h1 v1 h-1Z M21 30 h1 v1 h-1Z M24 30 h1 v1 h-1Z M26 30 h1 v1 h-1Z M30 30 h1 v1 h-1Z M31 30 h1 v1 h-1Z M34 30 h1 v1 h-1Z M36 30 h1 v1 h-1Z M37 30 h1 v1 h-1Z M40 30 h1 v1 h-1Z M4 31 h1 v1 h-1Z M6 31 h1 v1 h-1Z M7 31 h1 v1 h-1Z M8 31 h1 v1 h-1Z M9 31 h1 v1 h-1Z M11 31 h1 v1 h-1Z M14 31 h1 v1 h-1Z M16 31 h1 v1 h-1Z M17 31 h1 v1 h-1Z M19 31 h1 v1 h-1Z M21 31 h1 v1 h-1Z M22 31 h1 v1 h-1Z M28 31 h1 v1 h-1Z M30 31 h1 v1 h-1Z M31 31 h1 v1 h-1Z M32 31 h1 v1 h-1Z M35 31 h1 v1 h-1Z
M39 31 h1 v1 h-1Z M40 31 h1 v1 h-1Z M4 32 h1 v1 h-1Z M11 32 h1 v1 h-1Z M13 32 h1 v1 h-1Z M14 32 h1 v1 h-1Z M16 32 h1 v1 h-1Z M18 32 h1 v1 h-1Z M19 32 h1 v1 h-1Z M25 32 h1 v1 h-1Z M26 32 h1 v1 h-1Z M28 32 h1 v1 h-1Z M29 32 h1 v1 h-1Z M30 32 h1 v1 h-1Z M31 32 h1 v1 h-1Z M37 32 h1 v1 h-1Z M38 32 h1 v1 h-1Z M40 32 h1 v1 h-1Z M13 33 h1 v1 h-1Z M14 33 h1 v1 h-1Z M19 33 h1 v1 h-1Z M20 33 h1 v1 h-1Z M22 33 h1 v1 h-1Z M24 33 h1 v1 h-1Z M25 33 h1 v1 h-1Z M13 34 h1 v1 h-1Z M15 34 h1 v1 h-1Z M16 34 h1 v1 h-1Z M22 34 h1 v1 h-1Z M23 34 h1 v1 h-1Z M25 34 h1 v1 h-1Z M27 34 h1 v1 h-1Z M28 34 h1 v1 h-1Z M29 34 h1 v1 h-1Z M30 34 h1 v1 h-1Z M37 34 h1 v1 h-1Z M39 34 h1 v1 h-1Z M40 34 h1 v1 h-1Z M15 35 h1 v1 h-1Z M18 35 h1 v1 h-1Z M20 35 h1 v1 h-1Z M23 35 h1 v1 h-1Z M24 35 h1 v1 h-1Z M25 35 h1 v1 h-1Z M26 35 h1 v1 h-1Z M27 35 h1 v1 h-1Z M31 35 h1 v1 h-1Z M37 35 h1 v1 h-1Z M40 35 h1 v1 h-1Z M14 36 h1 v1 h-1Z M15 36 h1 v1 h-1Z M20 36 h1 v1 h-1Z M22 36 h1 v1 h-1Z M23 36 h1 v1 h-1Z M24 36 h1 v1 h-1Z M25 36 h1 v1 h-1Z M27 36 h1 v1 h-1Z M31 36 h1 v1 h-1Z M38 36 h1 v1 h-1Z M14 37 h1 v1 h-1Z M16 37 h1 v1 h-1Z M17 37 h1 v1 h-1Z M18 37 h1 v1 h-1Z M19 37 h1 v1 h-1Z M21 37 h1 v1 h-1Z M26 37 h1 v1 h-1Z M28 37 h1 v1 h-1Z M29 37 h1 v1 h-1Z M32 37 h1 v1 h-1Z M34 37 h1 v1 h-1Z M36 37 h1 v1 h-1Z M37 37 h1 v1 h-1Z M38 37 h1 v1 h-1Z M13 38 h1 v1 h-1Z M14 38 h1 v1 h-1Z M17 38 h1 v1 h-1Z M18 38 h1 v1 h-1Z M19 38 h1 v1 h-1Z M20 38 h1 v1 h-1Z M21 38 h1 v1 h-1Z M24 38 h1 v1 h-1Z M26 38 h1 v1 h-1Z M29 38 h1 v1 h-1Z M30 38 h1 v1 h-1Z M33 38 h1 v1 h-1Z M35 38 h1 v1 h-1Z M40 38 h1 v1 h-1Z M13 39 h1 v1 h-1Z M16 39 h1 v1 h-1Z M17 39 h1 v1 h-1Z M19 39 h1 v1 h-1Z M21 39 h1 v1 h-1Z M22 39 h1 v1 h-1Z M28 39 h1 v1 h-1Z M29 39 h1 v1 h-1Z M32 39 h1 v1 h-1Z M33 39 h1 v1 h-1Z M34 39 h1 v1 h-1Z M37 39 h1 v1 h-1Z M40 39 h1 v1 h-1Z
M14 40 h1 v1 h-1Z M16 40 h1 v1 h-1Z M18 40 h1 v1 h-1Z M19 40 h1 v1 h-1Z M25 40 h1 v1 h-1Z M26 40 h1 v1 h-1Z M28 40 h1 v1 h-1Z M30 40 h1 v1 h-1Z M31 40 h1 v1 h-1Z M34 40 h1 v1 h-1Z M38 40 h1 v1 h-1Z M39 40 h1 v1 h-1Z M40 40 h1 v1 h-1Z"/>
<path class="qr-2052 dark qrcode" fill="#000" fill-opacity="1" d="M4 4 h1 v1 h-1Z M5 4 h1 v1 h-1Z M6 4 h1 v1 h-1Z M7 4 h1 v1 h-1Z M8 4 h1 v1 h-1Z M9 4 h1 v1 h-1Z M10 4 h1 v1 h-1Z M34 4 h1 v1 h-1Z M35 4 h1 v1 h-1Z M36 4 h1 v1 h-1Z M37 4 h1 v1 h-1Z M38 4 h1 v1 h-1Z M39 4 h1 v1 h-1Z M40 4 h1 v1 h-1Z M4 5 h1 v1 h-1Z M10 5 h1 v1 h-1Z M34 5 h1 v1 h-1Z M40 5 h1 v1 h-1Z M4 6 h1 v1 h-1Z M10 6 h1 v1 h-1Z M34 6 h1 v1 h-1Z M40 6 h1 v1 h-1Z M4 7 h1 v1 h-1Z M10 7 h1 v1 h-1Z M34 7 h1 v1 h-1Z M40 7 h1 v1 h-1Z M4 8 h1 v1 h-1Z M10 8 h1 v1 h-1Z M34 8 h1 v1 h-1Z M40 8 h1 v1 h-1Z M4 9 h1 v1 h-1Z M10 9 h1 v1 h-1Z M34 9 h1 v1 h-1Z M40 9 h1 v1 h-1Z M4 10 h1 v1 h-1Z M5 10 h1 v1 h-1Z M6 10 h1 v1 h-1Z M7 10 h1 v1 h-1Z M8 10 h1 v1 h-1Z M9 10 h1 v1 h-1Z M10 10 h1 v1 h-1Z M34 10 h1 v1 h-1Z M35 10 h1 v1 h-1Z M36 10 h1 v1 h-1Z M37 10 h1 v1 h-1Z M38 10 h1 v1 h-1Z M39 10 h1 v1 h-1Z M40 10 h1 v1 h-1Z M4 34 h1 v1 h-1Z M5 34 h1 v1 h-1Z M6 34 h1 v1 h-1Z M7 34 h1 v1 h-1Z M8 34 h1 v1 h-1Z M9 34 h1 v1 h-1Z M10 34 h1 v1 h-1Z M4 35 h1 v1 h-1Z M10 35 h1 v1 h-1Z M4 36 h1 v1 h-1Z M10 36 h1 v1 h-1Z M4 37 h1 v1 h-1Z M10 37 h1 v1 h-1Z M4 38 h1 v1 h-1Z M10 38 h1 v1 h-1Z M4 39 h1 v1 h-1Z M10 39 h1 v1 h-1Z M4 40 h1 v1 h-1Z M5 40 h1 v1 h-1Z M6 40 h1 v1 h-1Z M7 40 h1 v1 h-1Z M8 40 h1 v1 h-1Z M9 40 h1 v1 h-1Z M10 40 h1 v1 h-1Z"/>
<path class="qr-2064 dark qrcode" fill="#000" fill-opacity="1" d="M32 32 h1 v1 h-1Z M33 32 h1 v1 h-1Z M34 32 h1 v1 h-1Z M35 32 h1 v1 h-1Z M36 32 h1 v1 h-1Z M32 33 h1 v1 h-1Z M36 33 h1 v1 h-1Z M32 34 h1 v1 h-1Z M34 34 h1 v1 h-1Z M36 34 h1 v1 h-1Z M32 35 h1 v1 h-1Z M36 35 h1 v1 h-1Z M32 36 h1 v1 h-1Z M33 36 h1 v1 h-1Z M34 36 h1 v1 h-1Z M35 36 h1 v1 h-1Z M36 36 h1 v1 h-1Z"/>
<path class="qr-2080 dark qrcode" fill="#000" fill-opacity="1" d="M12 10 h1 v1 h-1Z M14 10 h1 v1 h-1Z M16 10 h1 v1 h-1Z M18 10 h1 v1 h-1Z M20 10 h1 v1 h-1Z M22 10 h1 v1 h-1Z M24 10 h1 v1 h-1Z M26 10 h1 v1 h-1Z M28 10 h1 v1 h-1Z M30 10 h1 v1 h-1Z M32 10 h1 v1 h-1Z M10 12 h1 v1 h-1Z M10 14 h1 v1 h-1Z M10 16 h1 v1 h-1Z M10 18 h1 v1 h-1Z M10 20 h1 v1 h-1Z M10 22 h1 v1 h-1Z M10 24 h1 v1 h-1Z M10 26 h1 v1 h-1Z M10 28 h1 v1 h-1Z M10 30 h1 v1 h-1Z M10 32 h1 v1 h-1Z"/>
<path class="qr-2112 dark qrcode" fill="#000" fill-opacity="1" d="M12 5 h1 v1 h-1Z M12 7 h1 v1 h-1Z M12 9 h1 v1 h-1Z M4 12 h1 v1 h-1Z M5 12 h1 v1 h-1Z M6 12 h1 v1 h-1Z M7 12 h1 v1 h-1Z M8 12 h1 v1 h-1Z M11 12 h1 v1 h-1Z M12 12 h1 v1 h-1Z M33 12 h1 v1 h-1Z M35 12 h1 v1 h-1Z M37 12 h1 v1 h-1Z M39 12 h1 v1 h-1Z M12 34 h1 v1 h-1Z M12 36 h1 v1 h-1Z M12 37 h1 v1 h-1Z M12 38 h1 v1 h-1Z M12 39 h1 v1 h-1Z M12 40 h1 v1 h-1Z"/>
<path class="qr-3072 dark qrcode" fill="#000" fill-opacity="1" d="M6 6 h1 v1 h-1Z M7 6 h1 v1 h-1Z M8 6 h1 v1 h-1Z M36 6 h1 v1 h-1Z M37 6 h1 v1 h-1Z M38 6 h1 v1 h-1Z M6 7 h1 v1 h-1Z M7 7 h1 v1 h-1Z M8 7 h1 v1 h-1Z M36 7 h1 v1 h-1Z M37 7 h1 v1 h-1Z M38 7 h1 v1 h-1Z M6 8 h1 v1 h-1Z M7 8 h1 v1 h-1Z M8 8 h1 v1 h-1Z M36 8 h1 v1 h-1Z M37 8 h1 v1 h-1Z M38 8 h1 v1 h-1Z M6 36 h1 v1 h-1Z M7 36 h1 v1 h-1Z M8 36 h1 v1 h-1Z M6 37 h1 v1 h-1Z M7 37 h1 v1 h-1Z M8 37 h1 v1 h-1Z M6 38 h1 v1 h-1Z M7 38 h1 v1 h-1Z M8 38 h1 v1 h-1Z"/>
</svg>
