<?xml version="1.0" encoding="UTF-8"?>
<svg xmlns="http://www.w3.org/2000/svg" class="qr-svg qrcode" viewBox="0 0 45 45" preserveAspectRatio="xMidYMid">
<path class="qr-2049 dark qrcode" fill="#000" fill-opacity="1" d="M12 33 h1 v1 h-1Z"/>
<path class="qr-2050 dark qrcode" fill="#000" fill-opacity="1" d="M13 4 h1 v1 h-1Z M14 4 h1 v1 h-1Z M16 4 h1 v1 h-1Z M21 4 h1 v1 h-1Z M23 4 h1 v1 h-1Z M24 4 h1 v1 h-1Z M25 4 h1 v1 h-1Z M26 4 h1 v1 h-1Z M28 4 h1 v1 h-1Z M29 4 h1 v1 h-1Z M31 4 h1 v1 h-1Z M13 5 h1 v1 h-1Z M14 5 h1 v1 h-1Z M20 5 h1 v1 h-1Z M21 5 h1 v1 h-1Z M23 5 h1 v1 h-1Z M25 5 h1 v1 h-1Z M26 5 h1 v1 h-1Z M32 5 h1 v1 h-1Z M14 6 h1 v1 h-1Z M15 6 h1 v1 h-1Z M17 6 h1 v1 h-1Z M19 6 h1 v1 h-1Z M20 6 h1 v1 h-1Z M26 6 h1 v1 h-1Z M27 6 h1 v1 h-1Z M31 6 h1 v1 h-1Z M13 7 h1 v1 h-1Z M15 7 h1 v1 h-1Z M18 7 h1 v1 h-1Z M19 7 h1 v1 h-1Z M20 7 h1 v1 h-1Z M21 7 h1 v1 h-1Z M22 7 h1 v1 h-1Z M25 7 h1 v1 h-1Z M27 7 h1 v1 h-1Z M29 7 h1 v1 h-1Z M31 7 h1 v1 h-1Z M32 7 h1 v1 h-1Z M17 8 h1 v1 h-1Z M18 8 h1 v1 h-1Z M20 8 h1 v1 h-1Z M22 8 h1 v1 h-1Z M23 8 h1 v1 h-1Z M29 8 h1 v1 h-1Z M31 8 h1 v1 h-1Z M32 8 h1 v1 h-1Z M15 9 h1 v1 h-1Z M16 9 h1 v1 h-1Z M17 9 h1 v1 h-1Z M18 9 h1 v1 h-1Z M19 9 h1 v1 h-1Z M22 9 h1 v1 h-1Z M24 9 h1 v1 h-1Z M27 9 h1 v1 h-1Z M28 9 h1 v1 h-1Z M13 11 h1 v1 h-1Z M16 11 h1 v1 h-1Z M18 11 h1 v1 h-1Z M21 11 h1 v1 h-1Z M22 11 h1 v1 h-1Z M23 11 h1 v1 h-1Z M24 11 h1 v1 h-1Z M25 11 h1 v1 h-1Z M28 11 h1 v1 h-1Z M30 11 h1 v1 h-1Z M31 11 h1 v1 h-1Z M15 12 h1 v1 h-1Z M17 12 h1 v1 h-1Z M18 12 h1 v1 h-1Z M19 12 h1 v1 h-1Z M20 12 h1 v1 h-1Z M22 12 h1 v1 h-1Z M27 12 h1 v1 h-1Z M30 12 h1 v1 h-1Z M6 13 h1 v1 h-1Z M7 13 h1 v1 h-1Z M8 13 h1 v1 h-1Z M11 13 h1 v1 h-1Z M14 13 h1 v1 h-1Z M16 13 h1 v1 h-1Z M21 13 h1 v1 h-1Z M23 13 h1 v1 h-1Z M24 13 h1 v1 h-1Z M25 13 h1 v1 h-1Z M26 13 h1 v1 h-1Z M28 13 h1 v1 h-1Z M31 13 h1 v1 h-1Z M32 13 h1 v1 h-1Z M36 13 h1 v1 h-1Z M37 13 h1 v1 h-1Z M39 13 h1 v1 h-1Z M7 14 h1 v1 h-1Z M13 14 h1 v1 h-1Z M15 14 h1 v1 h-1Z M16 14 h1 v1 h-1Z M17 14 h1 v1 h-1Z M18 14 h1 v1 h-1Z M19 14 h1 v1 h-1Z M22 14 h1 v1 h-1Z
M24 14 h1 v1 h-1Z M27 14 h1 v1 h-1Z M28 14 h1 v1 h-1Z M31 14 h1 v1 h-1Z M32 14 h1 v1 h-1Z M33 14 h1 v1 h-1Z M35 14 h1 v1 h-1Z M37 14 h1 v1 h-1Z M38 14 h1 v1 h-1Z M39 14 h1 v1 h-1Z M5 15 h1 v1 h-1Z M7 15 h1 v1 h-1Z M8 15 h1 v1 h-1Z M9 15 h1 v1 h-1Z M12 15 h1 v1 h-1Z M15 15 h1 v1 h-1Z M17 15 h1 v1 h-1Z M19 15 h1 v1 h-1Z M20 15 h1 v1 h-1Z M26 15 h1 v1 h-1Z M27 15 h1 v1 h-1Z M30 15 h1 v1 h-1Z M31 15 h1 v1 h-1Z M36 15 h1 v1 h-1Z M38 15 h1 v1 h-1Z M39 15 h1 v1 h-1Z M4 16 h1 v1 h-1Z M6 16 h1 v1 h-1Z M7 16 h1 v1 h-1Z M8 16 h1 v1 h-1Z M9 16 h1 v1 h-1Z M14 16 h1 v1 h-1Z M16 16 h1 v1 h-1Z M17 16 h1 v1 h-1Z M23 16 h1 v1 h-1Z M24 16 h1 v1 h-1Z M26 16 h1 v1 h-1Z M28 16 h1 v1 h-1Z M30 16 h1 v1 h-1Z M32 16 h1 v1 h-1Z M33 16 h1 v1 h-1Z M34 16 h1 v1 h-1Z M38 16 h1 v1 h-1Z M6 17 h1 v1 h-1Z M13 17 h1 v1 h-1Z M17 17 h1 v1 h-1Z M18 17 h1 v1 h-1Z M20 17 h1 v1 h-1Z M22 17 h1 v1 h-1Z M23 17 h1 v1 h-1Z M29 17 h1 v1 h-1Z M31 17 h1 v1 h-1Z M35 17 h1 v1 h-1Z M36 17 h1 v1 h-1Z M37 17 h1 v1 h-1Z M39 17 h1 v1 h-1Z M5 18 h1 v1 h-1Z M8 18 h1 v1 h-1Z M14 18 h1 v1 h-1Z M20 18 h1 v1 h-1Z M21 18 h1 v1 h-1Z M23 18 h1 v1 h-1Z M25 18 h1 v1 h-1Z M26 18 h1 v1 h-1Z M29 18 h1 v1 h-1Z M30 18 h1 v1 h-1Z M31 18 h1 v1 h-1Z M35 18 h1 v1 h-1Z M36 18 h1 v1 h-1Z M37 18 h1 v1 h-1Z M39 18 h1 v1 h-1Z M4 19 h1 v1 h-1Z M8 19 h1 v1 h-1Z M9 19 h1 v1 h-1Z M11 19 h1 v1 h-1Z M13 19 h1 v1 h-1Z M14 19 h1 v1 h-1Z M16 19 h1 v1 h-1Z M18 19 h1 v1 h-1Z M21 19 h1 v1 h-1Z M22 19 h1 v1 h-1Z M23 19 h1 v1 h-1Z M24 19 h1 v1 h-1Z M25 19 h1 v1 h-1Z M28 19 h1 v1 h-1Z M31 19 h1 v1 h-1Z M33 19 h1 v1 h-1Z M35 19 h1 v1 h-1Z M37 19 h1 v1 h-1Z M38 19 h1 v1 h-1Z M39 19 h1 v1 h-1Z M5 20 h1 v1 h-1Z M7 20 h1 v1 h-1Z M11 20 h1 v1 h-1Z M12 20 h1 v1 h-1Z M13 20 h1 v1 h-1Z M15 20 h1 v1 h-1Z M17 20 h1 v1 h-1Z M18 20 h1 v1 h-1Z M19 20 h1 v1 h-1Z
M20 20 h1 v1 h-1Z M22 20 h1 v1 h-1Z M27 20 h1 v1 h-1Z M34 20 h1 v1 h-1Z M37 20 h1 v1 h-1Z M38 20 h1 v1 h-1Z M40 20 h1 v1 h-1Z M4 21 h1 v1 h-1Z M5 21 h1 v1 h-1Z M9 21 h1 v1 h-1Z M11 21 h1 v1 h-1Z M12 21 h1 v1 h-1Z M14 21 h1 v1 h-1Z M16 21 h1 v1 h-1Z M21 21 h1 v1 h-1Z M23 21 h1 v1 h-1Z M24 21 h1 v1 h-1Z M25 21 h1 v1 h-1Z M26 21 h1 v1 h-1Z M28 21 h1 v1 h-1Z M29 21 h1 v1 h-1Z M30 21 h1 v1 h-1Z M31 21 h1 v1 h-1Z M32 21 h1 v1 h-1Z M33 21 h1 v1 h-1Z M35 21 h1 v1 h-1Z M36 21 h1 v1 h-1Z M39 21 h1 v1 h-1Z M4 22 h1 v1 h-1Z M6 22 h1 v1 h-1Z M7 22 h1 v1 h-1Z M8 22 h1 v1 h-1Z M11 22 h1 v1 h-1Z M13 22 h1 v1 h-1Z M15 22 h1 v1 h-1Z M16 22 h1 v1 h-1Z M17 22 h1 v1 h-1Z M18 22 h1 v1 h-1Z M19 22 h1 v1 h-1Z M22 22 h1 v1 h-1Z M24 22 h1 v1 h-1Z M27 22 h1 v1 h-1Z M28 22 h1 v1 h-1Z M29 22 h1 v1 h-1Z M30 22 h1 v1 h-1Z M31 22 h1 v1 h-1Z M33 22 h1 v1 h-1Z M39 22 h1 v1 h-1Z M5 23 h1 v1 h-1Z M6 23 h1 v1 h-1Z M7 23 h1 v1 h-1Z M8 23 h1 v1 h-1Z M9 23 h1 v1 h-1Z M12 23 h1 v1 h-1Z M13 23 h1 v1 h-1Z M14 23 h1 v1 h-1Z M15 23 h1 v1 h-1Z M17 23 h1 v1 h-1Z M19 23 h1 v1 h-1Z M20 23 h1 v1 h-1Z M26 23 h1 v1 h-1Z M27 23 h1 v1 h-1Z M31 23 h1 v1 h-1Z M33 23 h1 v1 h-1Z M35 23 h1 v1 h-1Z M38 23 h1 v1 h-1Z M40 23 h1 v1 h-1Z M5 24 h1 v1 h-1Z M8 24 h1 v1 h-1Z M11 24 h1 v1 h-1Z M12 24 h1 v1 h-1Z M16 24 h1 v1 h-1Z M17 24 h1 v1 h-1Z M23 24 h1 v1 h-1Z M24 24 h1 v1 h-1Z M26 24 h1 v1 h-1Z M28 24 h1 v1 h-1Z M34 24 h1 v1 h-1Z M38 24 h1 v1 h-1Z M39 24 h1 v1 h-1Z M40 24 h1 v1 h-1Z M5 25 h1 v1 h-1Z M7 25 h1 v1 h-1Z M8 25 h1 v1 h-1Z M9 25 h1 v1 h-1Z M11 25 h1 v1 h-1Z M13 25 h1 v1 h-1Z M14 25 h1 v1 h-1Z M17 25 h1 v1 h-1Z M18 25 h1 v1 h-1Z M20 25 h1 v1 h-1Z M22 25 h1 v1 h-1Z M23 25 h1 v1 h-1Z M29 25 h1 v1 h-1Z M30 25 h1 v1 h-1Z M31 25 h1 v1 h-1Z M32 25 h1 v1 h-1Z M33 25 h1 v1 h-1Z M35 25 h1 v1 h-1Z M36 25 h1 v1 h-1Z
M39 25 h1 v1 h-1Z M12 26 h1 v1 h-1Z M13 26 h1 v1 h-1Z M20 26 h1 v1 h-1Z M21 26 h1 v1 h-1Z M23 26 h1 v1 h-1Z M25 26 h1 v1 h-1Z M26 26 h1 v1 h-1Z M30 26 h1 v1 h-1Z M31 26 h1 v1 h-1Z M36 26 h1 v1 h-1Z M39 26 h1 v1 h-1Z M4 27 h1 v1 h-1Z M5 27 h1 v1 h-1Z M8 27 h1 v1 h-1Z M11 27 h1 v1 h-1Z M13 27 h1 v1 h-1Z M14 27 h1 v1 h-1Z M16 27 h1 v1 h-1Z M18 27 h1 v1 h-1Z M21 27 h1 v1 h-1Z M22 27 h1 v1 h-1Z M23 27 h1 v1 h-1Z M24 27 h1 v1 h-1Z M25 27 h1 v1 h-1Z M28 27 h1 v1 h-1Z M30 27 h1 v1 h-1Z M31 27 h1 v1 h-1Z M32 27 h1 v1 h-1Z M35 27 h1 v1 h-1Z M37 27 h1 v1 h-1Z M38 27 h1 v1 h-1Z M39 27 h1 v1 h-1Z M40 27 h1 v1 h-1Z M5 28 h1 v1 h-1Z M9 28 h1 v1 h-1Z M11 28 h1 v1 h-1Z M12 28 h1 v1 h-1Z M13 28 h1 v1 h-1Z M14 28 h1 v1 h-1Z M15 28 h1 v1 h-1Z M17 28 h1 v1 h-1Z M18 28 h1 v1 h-1Z M19 28 h1 v1 h-1Z M20 28 h1 v1 h-1Z M22 28 h1 v1 h-1Z M27 28 h1 v1 h-1Z M30 28 h1 v1 h-1Z M31 28 h1 v1 h-1Z M32 28 h1 v1 h-1Z M34 28 h1 v1 h-1Z M37 28 h1 v1 h-1Z M38 28 h1 v1 h-1Z M40 28 h1 v1 h-1Z M4 29 h1 v1 h-1Z M5 29 h1 v1 h-1Z M6 29 h1 v1 h-1Z M7 29 h1 v1 h-1Z M8 29 h1 v1 h-1Z M9 29 h1 v1 h-1Z M12 29 h1 v1 h-1Z M13 29 h1 v1 h-1Z M14 29 h1 v1 h-1Z M16 29 h1 v1 h-1Z M21 29 h1 v1 h-1Z M23 29 h1 v1 h-1Z M24 29 h1 v1 h-1Z M25 29 h1 v1 h-1Z M26 29 h1 v1 h-1Z M28 29 h1 v1 h-1Z M29 29 h1 v1 h-1Z M31 29 h1 v1 h-1Z M33 29 h1 v1 h-1Z M35 29 h1 v1 h-1Z M36 29 h1 v1 h-1Z M37 29 h1 v1 h-1Z M39 29 h1 v1 h-1Z M6 30 h1 v1 h-1Z M7 30 h1 v1 h-1Z M8 30 h1 v1 h-1Z M9 30 h1 v1 h-1Z M12 30 h1 v1 h-1Z M13 30 h1 v1 h-1Z M14 30 h1 v1 h-1Z M15 30 h1 v1 h-1Z M16 30 h1 v1 h-1Z M17 30 h1 v1 h-1Z M18 30 h1 v1 h-1Z M19 30 h1 v1 h-1Z M22 30 h1 v1 h-1Z M24 30 h1 v1 h-1Z M27 30 h1 v1 h-1Z M28 30 h1 v1 h-1Z M29 30 h1 v1 h-1Z M31 30 h1 v1 h-1Z M32 30 h1 v1 h-1Z M33 30 h1 v1 h-1Z M36 30 h1 v1 h-1Z M39 30 h1 v1 h-1Z M12 31 h1 v1 h-1Z
M14 31 h1 v1 h-1Z M15 31 h1 v1 h-1Z M17 31 h1 v1 h-1Z M19 31 h1 v1 h-1Z M20 31 h1 v1 h-1Z M26 31 h1 v1 h-1Z M27 31 h1 v1 h-1Z M32 31 h1 v1 h-1Z M37 31 h1 v1 h-1Z M38 31 h1 v1 h-1Z M4 32 h1 v1 h-1Z M5 32 h1 v1 h-1Z M7 32 h1 v1 h-1Z M8 32 h1 v1 h-1Z M11 32 h1 v1 h-1Z M13 32 h1 v1 h-1Z M14 32 h1 v1 h-1Z M16 32 h1 v1 h-1Z M17 32 h1 v1 h-1Z M23 32 h1 v1 h-1Z M24 32 h1 v1 h-1Z M26 32 h1 v1 h-1Z M28 32 h1 v1 h-1Z M30 32 h1 v1 h-1Z M37 32 h1 v1 h-1Z M38 32 h1 v1 h-1Z M40 32 h1 v1 h-1Z M13 33 h1 v1 h-1Z M14 33 h1 v1 h-1Z M17 33 h1 v1 h-1Z M18 33 h1 v1 h-1Z M20 33 h1 v1 h-1Z M22 33 h1 v1 h-1Z M23 33 h1 v1 h-1Z M29 33 h1 v1 h-1Z M13 34 h1 v1 h-1Z M14 34 h1 v1 h-1Z M20 34 h1 v1 h-1Z M21 34 h1 v1 h-1Z M23 34 h1 v1 h-1Z M25 34 h1 v1 h-1Z M26 34 h1 v1 h-1Z M29 34 h1 v1 h-1Z M30 34 h1 v1 h-1Z M37 34 h1 v1 h-1Z M38 34 h1 v1 h-1Z M13 35 h1 v1 h-1Z M14 35 h1 v1 h-1Z M16 35 h1 v1 h-1Z M18 35 h1 v1 h-1Z M21 35 h1 v1 h-1Z M22 35 h1 v1 h-1Z M23 35 h1 v1 h-1Z M24 35 h1 v1 h-1Z M25 35 h1 v1 h-1Z M28 35 h1 v1 h-1Z M30 35 h1 v1 h-1Z M37 35 h1 v1 h-1Z M38 35 h1 v1 h-1Z M39 35 h1 v1 h-1Z M13 36 h1 v1 h-1Z M14 36 h1 v1 h-1Z M15 36 h1 v1 h-1Z M17 36 h1 v1 h-1Z M18 36 h1 v1 h-1Z M19 36 h1 v1 h-1Z M20 36 h1 v1 h-1Z M22 36 h1 v1 h-1Z M27 36 h1 v1 h-1Z M29 36 h1 v1 h-1Z M30 36 h1 v1 h-1Z M37 36 h1 v1 h-1Z M38 36 h1 v1 h-1Z M13 37 h1 v1 h-1Z M14 37 h1 v1 h-1Z M16 37 h1 v1 h-1Z M21 37 h1 v1 h-1Z M23 37 h1 v1 h-1Z M24 37 h1 v1 h-1Z M25 37 h1 v1 h-1Z M26 37 h1 v1 h-1Z M28 37 h1 v1 h-1Z M30 37 h1 v1 h-1Z M31 37 h1 v1 h-1Z M34 37 h1 v1 h-1Z M35 37 h1 v1 h-1Z M14 38 h1 v1 h-1Z M15 38 h1 v1 h-1Z M16 38 h1 v1 h-1Z M17 38 h1 v1 h-1Z M18 38 h1 v1 h-1Z M19 38 h1 v1 h-1Z M22 38 h1 v1 h-1Z M24 38 h1 v1 h-1Z M27 38 h1 v1 h-1Z M28 38 h1 v1 h-1Z M29 38 h1 v1 h-1Z M30 38 h1 v1 h-1Z M31 38 h1 v1 h-1Z M34 38 h1 v1 h-1Z
M35 38 h1 v1 h-1Z M38 38 h1 v1 h-1Z M39 38 h1 v1 h-1Z M15 39 h1 v1 h-1Z M17 39 h1 v1 h-1Z M19 39 h1 v1 h-1Z M20 39 h1 v1 h-1Z M26 39 h1 v1 h-1Z M27 39 h1 v1 h-1Z M29 39 h1 v1 h-1Z M33 39 h1 v1 h-1Z M34 39 h1 v1 h-1Z M35 39 h1 v1 h-1Z M36 39 h1 v1 h-1Z M38 39 h1 v1 h-1Z M39 39 h1 v1 h-1Z M13 40 h1 v1 h-1Z M16 40 h1 v1 h-1Z M17 40 h1 v1 h-1Z M23 40 h1 v1 h-1Z M24 40 h1 v1 h-1Z M26 40 h1 v1 h-1Z M28 40 h1 v1 h-1Z M29 40 h1 v1 h-1Z M33 40 h1 v1 h-1Z M34 40 h1 v1 h-1Z M35 40 h1 v1 h-1Z M36 40 h1 v1 h-1Z M38 40 h1 v1 h-1Z M39 40 h1 v1 h-1Z M40 40 h1 v1 h-1Z"/>
<path class="qr-2052 dark qrcode" fill="#000" fill-opacity="1" d="M4 4 h1 v1 h-1Z M5 4 h1 v1 h-1Z M6 4 h1 v1 h-1Z M7 4 h1 v1 h-1Z M8 4 h1 v1 h-1Z M9 4 h1 v1 h-1Z M10 4 h1 v1 h-1Z M34 4 h1 v1 h-1Z M35 4 h1 v1 h-1Z M36 4 h1 v1 h-1Z M37 4 h1 v1 h-1Z M38 4 h1 v1 h-1Z M39 4 h1 v1 h-1Z M40 4 h1 v1 h-1Z M4 5 h1 v1 h-1Z M10 5 h1 v1 h-1Z M34 5 h1 v1 h-1Z M40 5 h1 v1 h-1Z M4 6 h1 v1 h-1Z M10 6 h1 v1 h-1Z M34 6 h1 v1 h-1Z M40 6 h1 v1 h-1Z M4 7 h1 v1 h-1Z M10 7 h1 v1 h-1Z M34 7 h1 v1 h-1Z M40 7 h1 v1 h-1Z M4 8 h1 v1 h-1Z M10 8 h1 v1 h-1Z M34 8 h1 v1 h-1Z M40 8 h1 v1 h-1Z M4 9 h1 v1 h-1Z M10 9 h1 v1 h-1Z M34 9 h1 v1 h-1Z M40 9 h1 v1 h-1Z M4 10 h1 v1 h-1Z M5 10 h1 v1 h-1Z M6 10 h1 v1 h-1Z M7 10 h1 v1 h-1Z M8 10 h1 v1 h-1Z M9 10 h1 v1 h-1Z M10 10 h1 v1 h-1Z M34 10 h1 v1 h-1Z M35 10 h1 v1 h-1Z M36 10 h1 v1 h-1Z M37 10 h1 v1 h-1Z M38 10 h1 v1 h-1Z M39 10 h1 v1 h-1Z M40 10 h1 v1 h-1Z M4 34 h1 v1 h-1Z M5 34 h1 v1 h-1Z M6 34 h1 v1 h-1Z M7 34 h1 v1 h-1Z M8 34 h1 v1 h-1Z M9 34 h1 v1 h-1Z M10 34 h1 v1 h-1Z M4 35 h1 v1 h-1Z M10 35 h1 v1 h-1Z M4 36 h1 v1 h-1Z M10 36 h1 v1 h-1Z M4 37 h1 v1 h-1Z M10 37 h1 v1 h-1Z M4 38 h1 v1 h-1Z M10 38 h1 v1 h-1Z M4 39 h1 v1 h-1Z M10 39 h1 v1 h-1Z M4 40 h1 v1 h-1Z M5 40 h1 v1 h-1Z M6 40 h1 v1 h-1Z M7 40 h1 v1 h-1Z M8 40 h1 v1 h-1Z M9 40 h1 v1 h-1Z M10 40 h1 v1 h-1Z"/>
<path class="qr-2064 dark qrcode" fill="#000" fill-opacity="1" d="M32 32 h1 v1 h-1Z M33 32 h1 v1 h-1Z M34 32 h1 v1 h-1Z M35 32 h1 v1 h-1Z M36 32 h1 v1 h-1Z M32 33 h1 v1 h-1Z M36 33 h1 v1 h-1Z M32 34 h1 v1 h-1Z M34 34 h1 v1 h-1Z M36 34 h1 v1 h-1Z M32 35 h1 v1 h-1Z M36 35 h1 v1 h-1Z M32 36 h1 v1 h-1Z M33 36 h1 v1 h-1Z M34 36 h1 v1 h-1Z M35 36 h1 v1 h-1Z M36 36 h1 v1 h-1Z"/>
<path class="qr-2080 dark qrcode" fill="#000" fill-opacity="1" d="M12 10 h1 v1 h-1Z M14 10 h1 v1 h-1Z M16 10 h1 v1 h-1Z M18 10 h1 v1 h-1Z M20 10 h1 v1 h-1Z M22 10 h1 v1 h-1Z M24 10 h1 v1 h-1Z M26 10 h1 v1 h-1Z M28 10 h1 v1 h-1Z M30 10 h1 v1 h-1Z M32 10 h1 v1 h-1Z M10 12 h1 v1 h-1Z M10 14 h1 v1 h-1Z M10 16 h1 v1 h-1Z M10 18 h1 v1 h-1Z M10 20 h1 v1 h-1Z M10 22 h1 v1 h-1Z M10 24 h1 v1 h-1Z M10 26 h1 v1 h-1Z M10 28 h1 v1 h-1Z M10 30 h1 v1 h-1Z M10 32 h1 v1 h-1Z"/>
<path class="qr-2112 dark qrcode" fill="#000" fill-opacity="1" d="M12 4 h1 v1 h-1Z M12 5 h1 v1 h-1Z M12 6 h1 v1 h-1Z M12 7 h1 v1 h-1Z M12 9 h1 v1 h-1Z M4 12 h1 v1 h-1Z M5 12 h1 v1 h-1Z M8 12 h1 v1 h-1Z M9 12 h1 v1 h-1Z M35 12 h1 v1 h-1Z M37 12 h1 v1 h-1Z M38 12 h1 v1 h-1Z M39 12 h1 v1 h-1Z M40 12 h1 v1 h-1Z M12 35 h1 v1 h-1Z M12 36 h1 v1 h-1Z M12 39 h1 v1 h-1Z M12 40 h1 v1 h-1Z"/>
<path class="qr-3072 dark qrcode" fill="#000" fill-opacity="1" d="M6 6 h1 v1 h-1Z M7 6 h1 v1 h-1Z M8 6 h1 v1 h-1Z M36 6 h1 v1 h-1Z M37 6 h1 v1 h-1Z M38 6 h1 v1 h-1Z M6 7 h1 v1 h-1Z M7 7 h1 v1 h-1Z M8 7 h1 v1 h-1Z M36 7 h1 v1 h-1Z M37 7 h1 v1 h-1Z M38 7 h1 v1 h-1Z M6 8 h1 v1 h-1Z M7 8 h1 v1 h-1Z M8 8 h1 v1 h-1Z M36 8 h1 v1 h-1Z M37 8 h1 v1 h-1Z M38 8 h1 v1 h-1Z M6 36 h1 v1 h-1Z M7 36 h1 v1 h-1Z M8 36 h1 v1 h-1Z M6 37 h1 v1 h-1Z M7 37 h1 v1 h-1Z M8 37 h1 v1 h-1Z M6 38 h1 v1 h-1Z M7 38 h1 v1 h-1Z M8 38 h1 v1 h-1Z"/>
</svg>
